<svg viewBox="0 0 980 500" xmlns="http://www.w3.org/2000/svg" class="world-outline-svg" aria-hidden="true">
  <path d="M327.8,472.3 L327.0,473.7 L326.2,475.0 L320.5,474.6 L314.4,474.8 L311.0,473.9 L311.0,473.7 L309.5,472.9 L315.7,473.0 L321.5,473.3 L323.6,472.2 L325.0,471.2 L327.8,472.3 Z M56.6,470.8 L51.4,471.2 L47.8,470.2 L46.2,469.2 L46.1,469.1 L44.3,468.3 L44.3,468.3 L46.0,467.3 L51.1,467.7 L53.8,468.6 L55.9,469.6 L56.6,470.8 Z M367.1,466.8 L370.4,468.0 L371.6,469.7 L371.9,470.9 L372.0,472.3 L367.8,473.2 L363.4,473.9 L358.3,474.5 L352.6,475.1 L346.1,474.9 L342.6,474.0 L343.0,472.8 L348.8,472.1 L351.2,471.2 L352.9,470.0 L354.1,468.9 L355.8,467.9 L357.5,466.8 L357.5,466.8 L358.9,466.8 L363.0,466.2 L367.1,466.8 Z M160.0,454.2 L163.6,454.6 L166.8,454.1 L165.3,455.1 L162.7,455.8 L158.9,455.6 L156.2,454.6 L156.2,454.6 L156.8,453.7 L160.0,454.2 Z M148.2,454.1 L152.4,455.2 L150.8,455.1 L147.2,454.8 L143.5,454.1 L143.5,454.1 L145.5,453.5 L148.2,454.1 Z M220.6,449.8 L223.5,450.2 L226.5,449.9 L228.1,451.4 L226.0,451.2 L222.7,451.3 L219.3,451.2 L215.6,451.4 L212.9,450.8 L211.4,449.7 L211.4,449.7 L213.1,449.2 L216.6,449.6 L220.6,449.8 Z M303.7,447.1 L304.0,448.4 L303.5,449.4 L302.8,450.5 L299.6,450.9 L296.5,451.4 L292.9,451.3 L294.3,450.3 L291.1,450.6 L288.0,451.0 L286.0,450.2 L285.8,449.1 L288.8,448.0 L288.8,448.0 L290.7,447.6 L293.8,447.8 L294.6,446.3 L294.8,445.3 L294.7,443.1 L296.2,441.8 L298.8,441.3 L300.2,442.4 L300.8,443.4 L302.0,444.7 L302.9,445.8 L303.7,447.1 Z M330.4,428.2 L329.3,428.8 L327.2,428.4 L325.0,428.6 L323.1,429.3 L321.2,430.0 L319.8,430.8 L319.5,431.9 L319.6,432.9 L320.9,433.9 L319.0,434.5 L316.5,434.7 L315.0,435.7 L313.4,436.5 L311.7,437.7 L311.2,438.8 L312.2,439.9 L313.6,440.8 L315.9,441.4 L318.0,442.3 L319.1,443.4 L319.7,444.4 L320.5,445.5 L321.7,446.4 L322.5,447.5 L322.9,450.0 L323.7,451.1 L323.9,452.2 L324.8,453.2 L324.4,454.7 L322.9,455.9 L321.3,456.8 L317.7,457.2 L316.5,458.1 L314.8,459.1 L310.7,460.1 L307.1,460.5 L303.7,461.1 L300.0,461.7 L297.8,462.9 L293.4,463.0 L288.6,462.9 L284.3,463.1 L279.7,463.1 L280.6,464.2 L284.7,464.7 L287.8,465.4 L289.5,466.4 L286.5,467.3 L281.8,467.0 L277.9,467.7 L277.7,468.9 L277.6,469.9 L280.8,470.9 L281.4,471.9 L284.9,472.9 L290.6,473.4 L295.5,474.1 L299.4,475.0 L304.4,475.9 L311.1,476.3 L317.8,477.1 L322.4,477.9 L327.5,478.8 L330.2,480.1 L331.5,481.2 L334.8,480.2 L339.3,479.4 L344.0,478.5 L349.7,477.8 L354.5,477.0 L361.3,477.0 L368.0,477.4 L373.5,478.0 L375.2,476.8 L379.0,476.0 L385.9,475.9 L391.3,475.3 L396.4,474.7 L402.0,474.4 L408.1,473.9 L412.3,473.2 L410.4,472.2 L409.2,471.2 L409.2,470.2 L403.9,470.3 L398.3,470.7 L393.0,470.7 L392.2,469.7 L392.6,467.6 L393.8,467.0 L397.7,466.4 L402.3,465.7 L405.6,464.9 L408.9,464.1 L411.4,463.0 L415.1,462.5 L418.8,462.1 L420.7,461.9 L424.9,461.8 L428.9,461.4 L432.2,460.9 L435.5,460.2 L438.5,459.6 L442.3,458.7 L444.7,457.8 L447.3,456.9 L448.1,455.9 L445.2,455.2 L446.1,454.1 L448.0,453.2 L450.8,452.6 L453.8,452.0 L456.5,451.1 L458.7,450.0 L460.0,448.7 L462.0,448.0 L465.2,448.1 L466.6,449.0 L469.8,449.2 L469.9,448.1 L471.3,447.0 L474.2,447.3 L474.9,448.3 L478.2,448.5 L481.7,448.0 L485.1,447.7 L488.2,447.9 L489.4,449.0 L492.4,448.1 L495.1,447.6 L498.2,447.2 L501.3,446.8 L504.0,446.2 L507.1,445.7 L509.4,445.1 L511.1,444.1 L513.1,444.9 L515.9,444.5 L517.9,445.8 L519.4,446.8 L522.5,446.2 L523.8,445.1 L526.5,444.4 L530.1,444.5 L531.2,445.6 L533.4,444.5 L536.4,444.2 L539.5,444.1 L542.4,444.1 L545.5,444.5 L548.4,444.6 L549.7,445.6 L551.4,446.4 L554.4,445.9 L557.6,445.8 L560.7,445.8 L563.8,445.7 L566.5,445.3 L569.4,445.0 L571.8,444.3 L574.3,443.8 L577.1,443.5 L579.2,442.7 L580.7,441.2 L582.2,440.3 L585.0,440.7 L586.1,441.7 L588.4,442.4 L591.3,442.1 L593.2,443.1 L595.2,443.8 L598.0,443.2 L598.9,442.0 L601.4,441.5 L604.2,440.6 L606.9,440.2 L610.1,439.6 L612.2,439.0 L614.5,438.4 L616.6,437.8 L619.2,438.1 L621.6,437.1 L623.4,436.4 L625.9,436.4 L628.2,435.8 L628.7,434.8 L631.0,434.0 L633.2,433.5 L635.9,433.0 L638.5,432.8 L640.9,433.0 L643.4,433.3 L645.6,434.0 L645.9,435.2 L648.3,436.1 L649.9,436.9 L653.2,437.2 L655.0,438.0 L657.2,438.8 L659.8,438.9 L662.0,438.4 L664.4,437.2 L666.9,437.8 L669.6,438.2 L672.1,438.5 L674.8,438.7 L677.5,438.7 L679.8,441.6 L679.7,442.3 L679.3,443.6 L676.7,444.3 L674.6,445.3 L675.0,446.4 L678.0,446.3 L677.6,447.4 L676.3,448.4 L675.0,449.6 L677.1,450.5 L680.2,450.7 L683.3,450.2 L684.8,449.2 L685.7,448.1 L687.2,447.3 L688.9,446.4 L689.6,445.5 L691.1,444.1 L692.8,443.8 L695.9,443.7 L698.6,443.4 L701.4,443.0 L702.7,441.9 L703.5,440.8 L705.4,439.8 L708.0,439.1 L710.3,438.5 L711.8,437.6 L713.4,437.1 L715.3,436.7 L718.1,437.0 L720.5,436.7 L723.2,436.4 L726.2,436.5 L728.1,435.8 L729.5,433.9 L730.5,434.7 L731.8,436.0 L734.1,436.5 L736.7,436.7 L739.3,436.4 L742.1,436.6 L744.7,436.7 L746.4,436.4 L748.7,436.6 L750.7,437.2 L753.2,436.8 L756.1,436.8 L758.6,436.4 L761.5,436.8 L763.3,435.9 L764.7,435.0 L766.5,434.2 L769.9,432.1 L771.7,432.5 L773.8,433.3 L775.6,434.2 L779.0,435.9 L781.7,436.0 L784.2,436.0 L787.2,435.7 L790.1,435.3 L792.3,434.5 L794.2,433.7 L797.2,433.6 L799.3,433.0 L801.4,433.5 L802.8,434.4 L804.7,435.3 L807.7,435.2 L809.5,435.9 L812.8,436.6 L816.2,436.9 L819.0,436.6 L821.2,435.8 L823.0,434.9 L825.4,434.7 L827.9,435.1 L830.7,435.3 L833.3,434.9 L835.7,434.9 L838.1,435.2 L840.6,435.4 L843.1,435.0 L846.0,434.5 L848.8,434.4 L851.9,434.4 L854.4,434.1 L856.8,433.9 L857.6,432.6 L857.7,431.4 L859.4,432.2 L859.9,433.4 L860.8,434.6 L861.9,435.5 L864.2,436.0 L867.3,435.8 L870.9,435.8 L873.3,435.6 L876.9,435.6 L879.4,435.5 L883.0,435.7 L886.1,435.9 L888.0,436.7 L887.4,437.8 L889.2,438.6 L892.1,439.3 L895.2,440.0 L898.7,440.4 L902.4,440.9 L905.1,441.3 L908.2,441.4 L910.0,440.4 L912.4,441.2 L914.5,442.1 L916.9,442.7 L920.2,443.0 L923.3,443.3 L924.7,444.4 L927.8,445.1 L929.8,446.1 L932.9,446.5 L936.0,446.4 L938.9,446.6 L942.2,446.5 L945.5,446.8 L948.5,447.1 L951.3,447.8 L954.1,448.3 L956.1,449.2 L955.7,450.2 L954.3,451.2 L953.1,452.5 L952.1,453.5 L950.8,454.6 L947.3,455.0 L945.7,456.0 L942.1,456.6 L940.9,457.7 L939.1,458.7 L937.1,459.6 L936.0,460.8 L935.3,461.8 L935.0,463.0 L935.1,464.1 L936.6,465.2 L937.2,466.2 L938.5,467.2 L943.5,467.6 L944.6,468.8 L939.7,469.2 L935.5,469.8 L930.4,469.9 L928.1,471.5 L927.6,472.8 L926.4,473.8 L925.0,474.8 L928.6,475.8 L930.0,476.9 L932.3,478.0 L935.6,478.9 L939.4,479.7 L943.5,480.6 L949.8,481.5 L951.2,482.8 L959.0,483.4 L959.5,483.7 L961.6,484.5 L969.1,483.8 L975.3,484.6 L980.0,485.3 L980.0,500.0 L0.0,500.0 L0.0,485.3 L0.2,485.3 L2.6,483.7 L7.5,484.6 L7.8,484.5 L8.5,484.3 L9.5,484.0 L10.3,483.7 L10.7,483.6 L11.1,483.6 L11.4,483.7 L15.3,484.8 L18.7,483.7 L19.4,483.5 L27.4,483.0 L29.9,483.7 L31.2,484.0 L35.3,484.9 L43.1,485.6 L49.2,486.5 L59.7,487.1 L67.5,486.4 L79.1,486.9 L85.7,487.8 L92.9,487.0 L100.4,486.2 L101.0,484.9 L90.3,484.8 L81.5,484.2 L79.2,483.1 L71.9,482.5 L72.4,481.2 L73.4,480.1 L74.4,479.0 L73.9,477.9 L69.3,477.1 L67.3,476.2 L63.1,475.3 L69.7,475.4 L76.0,475.0 L79.9,475.9 L84.8,475.1 L89.2,474.1 L91.4,473.2 L90.5,472.0 L86.9,471.3 L82.9,470.4 L77.3,470.3 L72.4,469.9 L67.2,469.6 L65.4,468.6 L61.9,467.7 L59.7,466.7 L58.9,463.6 L60.2,463.9 L62.7,464.7 L67.2,464.5 L71.5,464.1 L73.7,465.3 L78.0,465.0 L81.7,464.4 L85.1,463.6 L88.2,462.7 L92.3,462.4 L92.2,461.4 L91.2,460.4 L92.0,459.4 L95.5,458.9 L97.1,459.8 L101.3,459.3 L104.4,458.6 L108.3,458.5 L112.0,458.2 L115.7,457.6 L118.6,457.0 L121.9,456.4 L124.0,456.6 L125.9,456.8 L130.0,456.4 L133.6,456.9 L137.3,456.8 L140.9,456.5 L144.6,456.7 L148.6,457.0 L152.4,456.9 L156.4,456.9 L160.4,457.0 L164.1,456.9 L166.9,456.1 L170.2,455.6 L173.6,456.2 L176.9,455.7 L179.8,454.8 L181.6,455.6 L182.5,456.6 L184.3,457.5 L187.1,456.7 L190.4,457.8 L194.1,458.1 L197.2,458.8 L201.0,458.7 L204.5,458.2 L208.6,458.3 L212.3,458.7 L216.0,459.2 L217.5,458.0 L215.7,457.0 L214.4,456.1 L210.8,455.9 L209.3,454.8 L208.7,453.8 L207.8,451.7 L209.8,452.1 L213.4,452.3 L216.9,452.1 L220.1,452.5 L222.9,453.3 L224.1,454.3 L227.8,454.5 L231.3,454.1 L235.0,453.6 L238.4,453.2 L241.1,453.9 L244.8,453.7 L247.1,451.6 L249.3,452.8 L252.4,453.3 L255.8,453.0 L258.1,454.1 L261.7,454.2 L265.0,454.5 L268.2,455.1 L270.4,454.1 L271.4,453.1 L274.1,454.2 L277.9,453.9 L280.6,454.5 L282.5,455.5 L286.1,455.2 L289.0,454.6 L291.7,453.9 L295.0,453.5 L298.9,453.2 L302.3,452.8 L305.0,452.2 L306.6,451.3 L307.2,450.1 L306.9,449.0 L306.1,447.9 L305.1,446.8 L304.3,445.7 L303.6,444.7 L303.4,443.7 L303.7,442.6 L305.0,441.5 L306.0,440.4 L306.4,439.3 L305.9,438.1 L305.6,437.0 L306.9,435.8 L308.4,435.0 L310.2,433.9 L312.0,433.0 L314.2,432.2 L315.3,431.0 L316.8,430.3 L318.5,429.6 L321.1,429.4 L322.8,428.5 L324.7,428.0 L327.0,427.7 L328.9,426.9 L330.5,426.1 L332.6,425.8 L334.2,426.5 L333.2,427.4 L330.4,428.2 Z M305.6,399.6 L309.1,401.2 L312.9,401.9 L311.7,403.3 L309.1,403.5 L307.7,402.5 L306.8,403.6 L304.5,404.5 L301.5,404.2 L299.6,403.3 L296.7,402.9 L293.3,401.4 L290.5,399.9 L286.8,396.8 L289.0,397.4 L292.8,399.2 L296.4,400.2 L297.8,398.9 L298.7,397.0 L301.2,395.9 L303.2,396.2 L303.2,396.2 L304.2,397.5 L305.6,399.6 Z M330.6,391.9 L332.8,393.2 L332.0,394.2 L328.3,395.0 L327.1,394.0 L324.8,395.3 L323.4,394.0 L326.7,392.4 L329.0,393.1 L330.6,391.9 Z M681.3,388.1 L677.1,388.3 L677.1,386.8 L677.5,385.6 L677.7,385.1 L679.4,385.9 L682.0,386.3 L682.1,386.8 L681.3,388.1 Z M885.8,363.3 L888.4,364.3 L889.9,363.9 L892.0,363.4 L893.7,363.5 L893.9,366.8 L892.9,367.8 L892.7,370.0 L891.7,369.3 L889.8,371.2 L889.3,371.1 L887.6,371.0 L885.9,368.6 L885.5,366.8 L884.0,364.3 L884.0,363.1 L885.8,363.3 Z M961.0,363.7 L961.6,364.8 L963.6,363.7 L964.3,364.9 L964.3,366.0 L963.3,367.3 L961.6,369.4 L960.2,370.5 L961.2,371.8 L959.1,371.8 L956.7,372.9 L956.0,374.7 L954.5,377.5 L952.3,378.8 L951.0,379.6 L948.5,379.5 L946.7,378.6 L943.7,378.4 L943.3,377.4 L944.7,375.3 L948.2,372.6 L949.9,372.0 L951.9,371.0 L954.2,369.5 L955.8,368.1 L957.1,366.0 L958.1,365.3 L958.5,363.8 L960.4,362.5 L961.0,363.7 Z M965.3,350.4 L967.3,353.4 L967.4,351.5 L968.6,352.2 L969.0,354.3 L971.2,355.2 L973.0,355.4 L974.6,354.4 L976.0,354.7 L975.3,357.2 L974.5,358.8 L972.4,358.7 L971.7,359.6 L971.9,360.8 L971.5,361.3 L970.5,362.8 L969.1,364.7 L967.0,365.8 L966.6,365.1 L965.4,364.7 L967.0,362.4 L966.1,360.9 L963.2,359.7 L963.3,358.7 L965.2,357.8 L965.7,355.6 L965.6,353.8 L964.5,352.0 L964.5,351.5 L963.2,350.3 L961.1,347.9 L960.0,345.9 L961.0,345.7 L962.4,347.2 L964.6,348.0 L965.3,350.4 Z M944.9,311.6 L943.9,312.2 L942.4,311.5 L940.5,310.2 L938.7,308.7 L936.9,306.8 L936.5,305.8 L937.7,305.9 L939.2,306.8 L940.4,307.8 L941.3,308.6 L943.5,310.3 L944.9,311.6 Z M975.6,298.2 L976.5,299.0 L976.1,300.4 L974.4,300.8 L972.9,300.5 L972.6,299.2 L973.7,298.3 L974.9,298.6 L975.6,298.2 Z M978.3,296.7 L976.5,297.3 L976.2,296.2 L977.5,295.6 L978.4,295.5 L980.0,294.6 L980.0,296.0 L978.3,296.7 Z M0.2,295.8 L0.0,296.0 L0.0,294.6 L0.6,294.5 L0.2,295.8 Z M946.9,295.7 L946.0,296.1 L945.1,294.9 L945.2,294.1 L946.9,295.7 Z M944.9,291.5 L945.3,293.7 L944.6,293.4 L944.0,293.5 L943.7,292.8 L943.6,290.6 L944.9,291.5 Z M626.3,287.7 L626.7,291.0 L627.4,292.3 L627.1,293.6 L626.7,294.4 L625.7,292.8 L625.2,293.6 L625.7,295.7 L625.5,296.9 L624.7,297.5 L624.6,299.9 L623.5,303.1 L622.2,306.9 L620.5,312.2 L619.4,316.1 L618.2,319.3 L616.0,319.9 L613.6,321.1 L612.0,320.4 L609.9,319.4 L609.1,317.9 L609.0,315.5 L608.0,313.3 L607.7,311.3 L608.2,309.3 L609.5,308.8 L609.5,307.9 L610.8,305.8 L611.0,304.0 L610.4,302.7 L609.9,300.9 L609.7,298.4 L610.6,296.8 L611.0,295.0 L612.4,294.9 L613.9,294.4 L614.9,293.9 L616.1,293.8 L617.6,292.3 L619.9,290.5 L620.7,289.1 L620.3,288.0 L621.5,288.3 L623.0,286.4 L623.0,284.7 L623.9,283.4 L624.9,284.6 L625.6,285.8 L626.3,287.7 Z M880.8,288.2 L881.8,290.4 L883.5,289.4 L884.4,290.5 L885.7,291.6 L885.5,292.9 L886.0,295.2 L886.5,296.6 L887.1,297.0 L887.9,299.3 L887.6,300.8 L888.5,302.7 L891.4,304.1 L893.4,305.4 L895.2,306.6 L894.8,307.3 L896.4,309.1 L897.5,312.1 L898.5,311.5 L899.6,312.7 L900.3,312.2 L900.8,315.2 L902.7,316.9 L904.0,317.9 L906.1,320.2 L906.9,322.4 L906.9,324.0 L906.8,325.7 L908.1,328.1 L907.9,330.5 L907.4,331.8 L906.7,334.3 L906.7,335.9 L906.2,337.9 L905.0,340.4 L903.0,341.8 L902.0,343.9 L901.1,345.3 L900.3,347.7 L899.2,349.1 L898.5,351.2 L898.2,353.1 L898.3,354.0 L896.8,354.9 L893.7,355.0 L891.2,356.2 L890.0,357.2 L888.3,358.4 L886.1,357.2 L884.4,356.7 L884.8,355.3 L883.3,355.8 L880.9,357.8 L878.6,357.1 L877.0,356.6 L875.5,356.4 L872.8,355.6 L871.1,353.9 L870.6,351.8 L870.0,350.4 L868.6,349.3 L866.0,348.9 L866.9,347.6 L866.2,345.5 L864.9,347.4 L862.5,347.9 L863.9,346.4 L864.3,344.8 L865.4,343.4 L865.2,341.4 L862.9,343.8 L861.2,344.7 L860.2,346.9 L858.1,345.8 L858.2,344.3 L856.4,342.3 L855.0,341.2 L855.5,340.6 L852.0,338.9 L850.1,338.8 L847.5,337.5 L842.6,337.8 L839.1,338.7 L836.0,339.7 L833.4,339.5 L830.5,340.9 L828.2,341.6 L827.6,343.0 L826.6,344.1 L824.3,344.2 L822.6,344.5 L820.2,343.9 L818.2,344.3 L816.4,344.4 L814.8,345.9 L814.0,345.7 L812.6,346.5 L811.3,347.4 L809.3,347.3 L807.5,347.3 L804.6,345.5 L803.1,345.0 L803.2,343.4 L804.5,343.0 L805.0,342.4 L804.9,341.4 L805.2,339.5 L804.9,337.8 L803.5,335.0 L803.0,333.4 L803.2,331.8 L802.1,330.0 L802.0,329.2 L800.8,328.1 L800.5,325.9 L798.9,323.7 L798.5,322.5 L799.7,323.7 L798.8,321.2 L800.2,322.0 L801.0,323.1 L800.9,321.6 L799.6,319.4 L799.3,318.6 L798.7,317.7 L799.0,316.1 L799.5,315.4 L799.9,314.1 L799.6,312.4 L800.7,310.4 L800.9,312.5 L802.1,310.6 L804.3,309.7 L805.6,308.5 L807.7,307.5 L809.0,307.3 L809.7,307.6 L811.8,306.6 L813.5,306.3 L813.9,305.7 L814.6,305.4 L816.1,305.5 L819.0,304.7 L820.5,303.4 L821.2,302.0 L822.8,300.5 L822.9,299.4 L823.0,297.9 L824.9,295.6 L826.0,298.0 L827.2,297.4 L826.2,296.1 L827.1,294.8 L828.3,295.4 L828.6,293.2 L830.1,291.9 L830.7,290.8 L832.1,290.3 L832.1,289.5 L833.3,289.9 L833.4,289.2 L834.6,288.8 L835.9,288.4 L837.9,289.7 L839.4,291.3 L841.1,291.3 L842.9,291.6 L842.3,290.1 L843.6,287.8 L844.8,287.1 L844.4,286.4 L845.6,284.8 L847.2,283.8 L848.6,284.2 L850.9,283.7 L850.9,282.2 L848.9,281.3 L850.3,280.9 L852.1,281.6 L853.6,282.7 L855.8,283.5 L856.6,283.2 L858.3,284.0 L859.9,283.2 L860.9,283.5 L861.6,282.9 L862.8,284.3 L862.1,285.8 L861.1,286.9 L860.1,287.0 L860.4,288.1 L859.6,289.5 L858.7,290.9 L858.9,291.7 L861.0,293.2 L863.1,294.1 L864.5,295.0 L866.5,296.7 L867.3,296.7 L868.7,297.4 L869.1,298.3 L871.7,299.2 L873.5,298.2 L874.0,296.8 L874.6,295.5 L874.9,294.0 L875.7,291.8 L875.4,290.4 L875.6,289.6 L875.2,288.1 L875.6,286.0 L876.1,285.4 L875.7,284.5 L876.4,283.0 L876.9,281.5 L876.9,280.7 L878.0,279.6 L878.7,281.0 L878.9,282.7 L879.6,283.1 L879.7,284.2 L880.7,285.7 L880.9,287.2 L880.8,288.2 Z M931.3,279.1 L932.1,280.1 L930.2,280.1 L929.1,278.3 L930.8,279.0 L931.3,279.1 Z M818.6,278.4 L817.5,278.5 L813.9,276.5 L816.4,276.0 L817.8,276.8 L818.8,277.7 L818.6,278.4 Z M927.9,277.4 L926.8,277.5 L925.1,277.2 L924.6,276.8 L924.7,275.7 L926.5,276.1 L927.4,276.7 L927.9,277.4 Z M930.1,276.7 L929.7,277.2 L927.7,274.8 L927.1,273.1 L928.1,273.1 L929.0,275.3 L930.1,276.7 Z M828.7,278.2 L826.4,278.8 L826.1,278.4 L826.3,277.5 L827.5,275.8 L830.2,274.7 L830.5,274.0 L832.9,273.4 L834.8,273.3 L835.6,273.0 L836.6,273.3 L835.6,274.1 L832.8,275.3 L830.5,276.1 L828.7,278.2 Z M811.0,272.5 L811.9,273.2 L813.6,273.0 L814.3,274.2 L811.1,274.7 L809.3,275.1 L807.8,275.1 L808.7,273.5 L810.2,273.5 L811.0,272.5 Z M824.6,272.5 L824.2,274.0 L820.1,274.8 L816.5,274.5 L816.5,273.5 L818.6,272.9 L820.3,273.7 L822.1,273.5 L824.6,272.5 Z M925.2,273.2 L925.3,273.7 L923.2,272.5 L921.7,271.5 L920.7,270.6 L921.1,270.3 L922.3,271.0 L924.6,272.3 L925.2,273.2 Z M918.9,270.4 L918.3,270.6 L917.1,269.9 L916.0,268.8 L916.1,268.3 L917.8,269.5 L918.9,270.4 Z M785.7,268.8 L790.9,269.1 L791.5,268.0 L796.6,269.3 L797.6,271.1 L801.6,271.6 L805.0,273.3 L801.9,274.3 L798.9,273.2 L796.4,273.3 L793.6,273.1 L791.0,272.6 L787.9,271.5 L785.9,271.2 L784.8,271.6 L779.8,270.4 L779.3,269.2 L776.8,269.0 L778.7,266.4 L782.0,266.5 L784.2,267.6 L785.3,267.8 L785.7,268.8 Z M856.8,267.3 L855.3,269.2 L855.1,267.1 L855.6,266.1 L856.1,265.1 L856.8,265.9 L856.8,267.3 Z M914.3,268.9 L913.6,269.2 L912.4,268.2 L911.2,266.4 L910.6,264.3 L911.0,264.0 L911.3,264.8 L912.1,265.5 L913.4,267.2 L914.7,268.2 L914.3,268.9 Z M903.7,265.2 L902.3,265.4 L901.9,266.2 L900.4,266.9 L899.0,267.5 L897.5,267.5 L895.3,266.7 L893.8,266.0 L894.0,265.1 L896.4,265.5 L897.9,265.3 L898.3,264.0 L898.7,263.9 L899.0,265.4 L900.5,265.2 L901.3,264.2 L902.8,263.2 L902.5,261.6 L904.2,261.5 L904.7,262.0 L904.6,263.5 L903.7,265.2 Z M836.4,259.6 L835.4,260.5 L833.5,260.0 L833.0,258.8 L835.7,258.7 L836.4,259.6 Z M845.2,258.6 L846.2,260.7 L843.9,259.6 L841.6,259.3 L840.1,259.5 L838.2,259.4 L838.8,257.9 L842.2,257.8 L845.2,258.6 Z M906.9,262.5 L906.0,263.2 L905.5,261.6 L904.9,260.5 L903.7,259.6 L902.1,258.4 L900.1,257.6 L900.9,256.9 L902.4,257.7 L903.3,258.3 L904.4,259.0 L905.5,260.2 L906.6,261.1 L906.9,262.5 Z M855.2,253.2 L855.9,257.7 L858.7,259.4 L861.0,256.4 L864.1,254.7 L866.6,254.7 L868.9,255.7 L870.9,256.7 L873.8,257.2 L878.6,259.1 L883.6,260.7 L885.5,262.1 L887.0,263.5 L887.4,265.2 L891.9,266.9 L892.6,268.4 L890.1,268.7 L890.7,270.5 L893.1,272.3 L894.9,275.3 L896.4,275.2 L896.3,276.4 L898.4,276.9 L897.6,277.4 L900.5,278.6 L900.2,279.4 L898.4,279.6 L897.7,278.9 L895.4,278.6 L892.7,278.1 L890.5,276.4 L889.0,274.8 L887.6,272.4 L884.0,271.2 L881.7,272.0 L880.1,272.9 L880.4,275.0 L878.3,275.9 L876.7,275.4 L873.9,275.3 L871.5,273.0 L868.7,272.5 L868.1,273.3 L864.6,273.4 L865.8,271.1 L867.5,270.3 L866.8,267.3 L865.5,265.0 L860.2,262.6 L857.9,262.4 L853.9,259.8 L853.1,261.2 L852.0,261.4 L851.4,260.4 L851.4,259.2 L849.3,257.8 L852.2,256.8 L854.2,256.9 L854.0,256.2 L850.0,256.1 L848.9,254.5 L846.5,254.0 L845.3,252.6 L849.0,251.9 L850.4,251.0 L854.7,252.2 L855.2,253.2 Z M830.9,246.1 L828.7,248.8 L826.7,249.3 L824.1,248.8 L819.5,248.9 L817.2,249.3 L816.8,251.4 L819.2,253.9 L820.7,252.7 L825.8,251.7 L825.5,253.0 L824.4,252.6 L823.2,254.2 L820.8,255.3 L823.3,258.9 L822.9,259.8 L825.3,263.0 L825.3,264.8 L823.8,265.7 L822.8,264.7 L824.1,262.4 L821.4,263.5 L820.7,262.7 L821.1,261.6 L819.1,260.0 L819.3,257.3 L817.5,258.1 L817.7,261.4 L817.8,265.4 L816.1,265.8 L814.9,264.9 L815.7,262.4 L815.3,259.7 L814.2,259.7 L813.3,257.8 L814.4,256.0 L814.8,253.8 L816.2,249.6 L816.8,248.4 L819.1,246.4 L821.2,247.2 L824.6,247.6 L827.8,247.5 L830.5,245.4 L830.9,246.1 Z M840.3,246.9 L840.2,249.3 L838.8,249.0 L838.4,250.7 L839.5,252.2 L838.7,252.5 L837.6,250.7 L836.8,247.2 L837.4,245.0 L838.3,244.0 L838.5,245.5 L840.1,245.7 L840.3,246.9 Z M778.1,266.3 L775.0,266.3 L772.8,264.0 L769.3,261.7 L768.1,260.0 L766.0,257.8 L764.7,255.7 L762.6,251.8 L760.2,249.5 L759.4,247.1 L758.4,244.9 L756.0,243.2 L754.5,240.8 L752.5,239.3 L749.6,236.2 L749.4,234.8 L751.2,234.9 L755.4,235.4 L757.8,238.1 L759.9,240.0 L761.4,241.2 L764.0,244.2 L766.7,244.2 L769.0,246.1 L770.6,248.4 L772.7,249.7 L771.6,252.0 L773.1,252.9 L774.1,253.0 L774.6,255.0 L775.5,256.5 L777.5,256.7 L778.9,258.5 L778.2,262.0 L778.1,266.3 Z M810.9,244.9 L813.9,247.5 L810.7,247.8 L809.8,249.7 L809.9,252.2 L807.3,254.1 L807.2,256.9 L806.2,261.1 L805.8,260.2 L802.7,261.4 L801.6,259.7 L799.7,259.6 L798.3,258.7 L795.1,259.7 L794.1,258.3 L792.3,258.5 L790.1,258.2 L789.6,254.4 L788.3,253.7 L787.0,251.3 L786.6,248.8 L786.9,246.3 L788.5,244.4 L790.5,245.4 L792.6,244.9 L793.2,242.5 L794.3,242.0 L797.6,241.4 L799.6,239.2 L800.9,237.4 L802.0,236.4 L804.3,234.9 L806.4,232.9 L807.8,230.8 L808.9,230.8 L810.3,232.2 L810.4,233.4 L812.2,234.1 L814.4,235.0 L814.2,236.1 L812.4,236.2 L812.9,237.6 L810.9,238.5 L809.4,241.0 L811.4,243.6 L810.9,244.9 Z M834.0,226.6 L834.3,228.5 L834.5,230.0 L833.5,232.6 L832.5,229.7 L831.3,231.1 L832.1,233.2 L831.4,234.5 L828.2,232.9 L827.4,230.9 L828.2,229.6 L826.5,228.2 L825.6,229.4 L824.4,229.3 L822.3,230.8 L821.9,230.0 L823.0,227.7 L824.7,226.9 L826.2,225.9 L827.1,227.1 L829.2,226.3 L829.6,225.1 L831.6,225.0 L831.4,222.9 L833.6,224.2 L833.8,225.6 L834.0,226.6 Z M711.1,232.8 L708.7,233.4 L707.4,231.2 L706.9,227.2 L708.2,222.7 L710.1,224.3 L711.3,226.2 L712.6,229.1 L712.2,232.0 L711.1,232.8 Z M324.1,221.9 L321.8,222.2 L321.4,222.0 L322.1,221.2 L322.1,220.1 L323.7,219.8 L324.2,219.8 L324.1,221.9 Z M827.5,221.4 L826.5,222.4 L825.7,224.1 L824.8,224.9 L823.1,223.0 L823.7,222.3 L824.4,221.5 L824.7,219.8 L826.2,219.6 L825.8,221.5 L827.8,218.8 L827.5,221.4 Z M812.6,224.1 L809.0,226.8 L810.3,224.8 L812.3,223.1 L813.9,221.2 L815.3,218.4 L815.8,220.7 L814.0,222.2 L812.6,224.1 Z M821.8,217.0 L823.4,217.8 L825.2,217.8 L825.1,219.0 L823.8,220.2 L822.1,221.0 L822.0,219.7 L822.2,218.3 L821.8,217.0 Z M831.6,216.2 L832.4,219.3 L830.3,218.6 L830.4,219.5 L831.0,221.2 L829.7,221.8 L829.6,219.9 L828.8,219.8 L828.4,218.1 L830.0,218.3 L829.9,217.2 L828.3,215.1 L830.9,215.2 L831.6,216.2 Z M820.8,213.7 L820.1,216.1 L818.9,214.7 L817.5,212.6 L819.9,212.7 L820.8,213.7 Z M820.3,198.6 L821.9,199.4 L822.8,198.7 L823.0,199.4 L822.6,200.5 L823.5,202.5 L822.8,204.8 L821.2,205.7 L820.8,208.0 L821.4,210.2 L822.8,210.5 L824.0,210.2 L827.4,211.7 L827.2,213.2 L828.0,213.9 L827.8,215.2 L825.6,213.8 L824.6,212.4 L823.9,213.4 L822.2,211.7 L819.7,212.1 L818.4,211.5 L818.5,210.4 L819.4,209.7 L818.6,209.0 L818.2,210.0 L816.9,208.4 L816.5,207.2 L816.4,204.5 L817.4,205.5 L817.7,201.1 L818.6,198.6 L820.3,198.6 Z M311.4,199.4 L310.7,200.1 L308.7,200.1 L307.1,200.1 L307.0,199.0 L307.3,198.6 L309.6,198.6 L311.0,198.8 L311.4,199.4 Z M280.7,200.4 L279.8,200.8 L278.3,200.4 L276.7,199.4 L277.1,198.7 L278.2,198.5 L278.8,198.6 L280.7,198.9 L282.1,199.6 L282.6,200.3 L280.7,200.4 Z M292.4,194.8 L294.8,195.2 L295.1,194.8 L297.2,194.8 L298.9,195.5 L299.6,195.4 L300.1,196.4 L301.6,196.4 L301.5,197.2 L302.7,197.3 L304.0,198.3 L303.0,199.4 L301.7,198.8 L300.5,198.9 L299.6,198.8 L299.1,199.3 L298.0,199.5 L297.6,198.8 L296.7,199.2 L295.6,201.1 L294.9,200.7 L294.8,199.9 L293.0,199.4 L291.7,199.6 L290.0,199.4 L288.8,199.9 L287.3,199.0 L287.5,198.2 L290.1,198.5 L292.1,198.8 L293.1,198.1 L291.8,196.9 L291.9,195.9 L290.1,195.4 L290.8,194.7 L292.4,194.8 Z M790.4,198.1 L788.0,199.5 L785.8,198.6 L785.7,196.2 L787.0,194.9 L790.0,194.2 L791.6,194.2 L792.2,195.3 L791.0,196.5 L790.4,198.1 Z M66.6,197.0 L66.2,197.5 L65.5,197.1 L65.6,196.3 L65.1,195.3 L65.3,195.0 L65.7,194.5 L65.6,194.0 L65.7,193.7 L65.9,193.8 L67.0,194.2 L67.4,194.5 L67.9,194.8 L68.6,195.8 L68.5,196.0 L67.5,196.6 L66.6,197.0 Z M65.1,192.7 L64.2,192.9 L63.7,192.3 L63.4,192.0 L63.4,191.9 L63.7,191.6 L64.6,191.9 L65.3,192.3 L65.1,192.7 Z M63.3,191.2 L63.2,191.5 L61.7,191.4 L61.9,191.1 L63.3,191.2 Z M60.8,190.8 L60.7,190.9 L60.5,190.9 L59.5,190.8 L59.2,190.2 L59.1,190.1 L59.8,189.7 L60.0,189.9 L60.8,190.8 Z M56.2,188.9 L55.9,189.2 L55.0,188.7 L55.1,188.5 L55.5,188.2 L56.2,188.3 L56.2,188.9 Z M273.1,186.8 L274.2,187.8 L276.7,187.5 L277.7,188.1 L280.0,189.8 L281.7,191.1 L282.6,191.1 L284.2,191.6 L284.0,192.4 L286.0,192.5 L288.1,193.7 L287.7,194.3 L285.9,194.7 L284.1,194.8 L282.2,194.6 L278.3,194.8 L280.2,193.3 L279.0,192.6 L277.3,192.4 L276.4,191.6 L275.7,190.0 L274.2,190.1 L271.6,189.4 L270.8,188.8 L267.3,188.4 L266.3,187.8 L267.3,187.1 L264.7,187.0 L262.7,188.4 L261.6,188.5 L261.2,189.1 L259.8,189.4 L258.7,189.2 L260.1,188.3 L260.7,187.3 L261.9,186.7 L263.3,186.2 L265.4,185.9 L266.0,185.6 L268.4,185.8 L270.5,185.8 L273.1,186.8 Z M278.9,184.0 L278.3,184.1 L277.6,182.5 L276.6,181.7 L277.1,180.0 L278.0,180.1 L278.9,182.4 L278.9,184.0 Z M819.9,186.7 L818.7,189.0 L817.3,186.6 L817.0,184.6 L818.6,181.8 L820.7,179.7 L822.0,180.6 L821.5,182.2 L819.9,186.7 Z M278.2,176.2 L275.2,176.6 L275.0,175.6 L276.3,175.4 L278.1,175.4 L278.2,176.2 Z M280.4,176.1 L279.9,178.1 L279.4,177.8 L279.5,176.3 L278.2,175.2 L278.2,174.9 L280.4,176.1 Z M856.5,155.1 L856.9,156.1 L855.3,157.8 L854.2,156.9 L852.8,157.5 L852.1,159.2 L850.3,158.4 L850.3,157.0 L851.8,155.4 L853.4,155.7 L854.5,154.5 L856.5,155.1 Z M584.1,150.9 L582.3,152.1 L582.5,152.6 L582.6,152.8 L579.8,154.0 L578.4,153.6 L577.8,152.5 L579.1,152.4 L579.3,152.4 L579.7,151.7 L581.6,151.7 L584.1,150.9 Z M554.5,150.8 L556.0,151.8 L558.1,151.6 L560.1,151.8 L560.1,152.3 L561.6,151.9 L561.2,152.8 L557.3,153.0 L557.3,152.5 L554.0,152.0 L554.5,150.8 Z M532.2,143.8 L531.3,146.0 L531.7,146.8 L531.1,148.3 L529.0,147.2 L527.6,146.9 L523.8,145.5 L524.2,144.1 L527.4,144.3 L530.2,144.0 L532.2,143.8 Z M515.1,135.5 L516.7,137.5 L516.3,141.2 L515.1,141.0 L514.0,141.9 L512.9,141.2 L512.8,137.8 L512.2,136.2 L513.7,136.4 L515.1,135.5 Z M873.8,146.8 L872.7,149.0 L873.2,150.4 L871.8,152.4 L868.3,153.7 L863.5,153.9 L859.7,157.0 L857.8,156.0 L857.7,153.9 L853.0,154.5 L849.8,155.8 L846.6,155.9 L849.3,157.9 L847.5,162.6 L845.8,163.8 L844.4,162.7 L845.1,160.2 L843.4,159.4 L842.3,157.5 L844.9,156.7 L846.3,154.9 L849.0,153.5 L851.0,151.6 L856.4,150.7 L859.3,151.3 L862.2,146.4 L864.0,147.7 L868.0,144.9 L869.5,143.8 L871.3,140.4 L870.8,137.3 L871.9,135.6 L874.8,135.1 L876.3,138.9 L876.2,141.2 L873.7,144.0 L873.8,146.8 Z M516.0,132.9 L515.1,135.1 L513.9,134.5 L513.3,132.6 L513.8,131.6 L515.6,130.5 L516.0,132.9 Z M881.8,127.3 L883.7,127.9 L885.6,126.7 L886.2,129.8 L882.2,130.6 L879.8,133.3 L875.5,131.4 L874.0,134.5 L871.0,134.5 L870.6,131.8 L872.0,129.6 L874.9,129.5 L875.7,125.6 L876.5,123.5 L879.7,126.4 L881.8,127.3 Z M316.7,120.7 L318.7,121.1 L321.2,121.0 L319.9,122.1 L318.8,122.3 L315.4,121.1 L314.7,120.2 L315.7,119.3 L316.7,120.7 Z M321.7,113.6 L320.4,113.6 L316.9,112.8 L314.4,111.5 L315.3,111.2 L318.9,111.9 L321.7,113.1 L321.7,113.6 Z M153.8,115.2 L152.4,115.6 L147.9,114.4 L147.1,113.4 L144.7,112.4 L144.2,111.6 L141.4,111.1 L140.3,109.6 L140.6,109.0 L143.4,109.6 L145.1,110.0 L147.7,110.3 L148.6,111.2 L149.9,112.6 L152.7,113.7 L153.8,115.2 Z M337.2,109.2 L335.4,111.6 L337.2,110.7 L339.0,111.3 L338.0,112.3 L340.5,113.0 L341.7,112.3 L344.4,113.2 L343.6,115.2 L345.5,114.8 L345.8,116.2 L346.7,118.0 L345.5,120.4 L344.3,120.5 L342.5,120.0 L343.1,117.7 L342.3,117.4 L339.2,119.8 L337.6,119.7 L339.5,118.4 L336.9,117.7 L333.9,117.9 L328.7,117.8 L328.2,116.9 L329.9,116.0 L328.8,115.2 L331.0,113.5 L333.9,109.1 L335.5,107.5 L337.9,106.6 L339.2,106.7 L338.6,107.5 L337.2,109.2 Z M128.7,99.9 L128.7,99.9 L128.7,99.9 L128.7,99.9 L131.3,99.7 L130.5,102.8 L132.9,105.1 L131.8,105.0 L130.2,103.8 L129.2,102.5 L127.8,101.6 L127.3,100.4 L127.5,99.5 L128.7,99.9 Z M881.0,109.0 L883.8,114.0 L879.8,113.0 L878.1,117.1 L880.7,119.9 L880.7,121.8 L878.6,120.2 L876.8,122.3 L876.3,120.0 L876.6,117.3 L876.3,114.3 L876.9,112.2 L877.0,108.5 L875.5,105.7 L875.7,101.9 L878.2,100.7 L877.1,99.4 L878.3,99.0 L879.0,100.8 L880.0,103.5 L879.9,106.2 L881.0,109.0 Z M471.5,104.8 L466.7,106.5 L462.8,106.1 L465.0,103.2 L463.6,100.3 L467.3,98.2 L469.4,96.9 L471.7,96.7 L474.6,98.5 L473.1,100.4 L473.6,102.4 L471.5,104.8 Z M524.5,95.5 L522.9,97.8 L520.1,96.2 L519.7,95.1 L523.7,94.1 L524.5,95.5 Z M73.5,91.3 L70.8,92.4 L69.4,91.7 L69.0,90.4 L71.4,89.4 L72.9,89.0 L74.7,89.2 L75.8,90.0 L73.5,91.3 Z M481.8,87.1 L478.9,90.1 L481.7,89.7 L484.7,89.8 L484.0,92.0 L481.5,94.5 L484.3,94.7 L487.0,98.3 L488.8,98.7 L490.5,101.9 L491.3,103.0 L494.6,103.5 L494.2,105.3 L492.9,106.1 L493.9,107.5 L491.5,109.0 L487.9,109.0 L483.2,109.7 L482.0,109.2 L480.2,110.5 L477.6,110.2 L475.7,111.2 L474.3,110.7 L478.3,107.7 L480.7,107.1 L476.4,106.7 L475.7,105.6 L478.5,104.7 L477.0,103.2 L477.5,101.4 L481.6,101.7 L482.0,100.0 L480.1,98.3 L476.8,97.8 L476.2,97.1 L477.2,95.8 L476.3,95.0 L474.8,96.4 L474.6,93.7 L473.3,92.3 L474.2,89.4 L476.4,87.1 L478.5,87.4 L481.8,87.1 Z M39.3,83.6 L37.6,84.0 L35.8,83.5 L34.1,82.7 L36.8,82.3 L39.0,82.5 L39.3,83.6 Z M274.2,77.3 L273.2,78.8 L272.0,78.6 L271.2,77.7 L271.4,77.5 L272.4,76.7 L273.5,76.8 L274.2,77.3 Z M267.1,75.8 L263.9,77.3 L261.9,77.3 L261.4,76.5 L263.4,75.2 L267.1,75.3 L267.1,75.8 Z M22.5,72.8 L24.2,73.4 L25.9,73.1 L28.1,73.8 L30.8,74.2 L30.6,74.5 L28.5,75.1 L26.4,74.5 L25.4,74.0 L23.0,74.1 L22.3,73.9 L22.5,72.8 Z M258.2,67.6 L258.7,68.8 L260.1,68.4 L261.7,69.1 L264.6,70.1 L267.8,71.0 L268.0,72.3 L270.0,72.1 L271.9,73.0 L269.5,73.9 L265.3,73.2 L263.8,71.9 L261.1,73.4 L257.2,74.9 L256.3,73.2 L252.6,73.5 L254.9,72.1 L255.3,69.9 L256.2,67.4 L258.2,67.6 Z M450.5,65.4 L449.9,67.2 L453.0,69.1 L449.4,71.2 L441.6,73.1 L439.2,73.6 L435.6,73.2 L428.0,72.3 L430.7,71.1 L424.8,69.7 L429.6,69.2 L429.5,68.4 L423.8,67.7 L425.6,65.9 L429.7,65.5 L434.0,67.4 L438.1,65.9 L441.5,66.7 L446.0,65.2 L450.5,65.4 Z M283.5,63.5 L280.4,63.6 L279.7,62.3 L280.9,60.7 L283.4,60.3 L285.5,61.1 L285.6,62.3 L285.2,62.7 L283.5,63.5 Z M13.6,65.0 L15.4,65.7 L14.8,63.7 L22.2,64.1 L27.5,66.7 L24.8,67.9 L20.3,68.2 L20.3,70.9 L19.2,71.5 L16.6,71.4 L14.6,70.5 L10.9,69.7 L10.3,68.5 L7.6,68.0 L4.5,68.4 L3.0,67.4 L3.6,66.4 L0.3,67.0 L1.5,68.3 L0.0,69.5 L0.0,58.4 L6.7,60.6 L13.8,63.3 L13.6,65.0 Z M229.6,58.0 L227.9,59.0 L224.3,58.2 L222.0,58.5 L218.3,57.2 L220.7,56.4 L222.6,55.2 L225.5,55.9 L227.1,56.4 L228.0,57.0 L229.6,58.0 Z M980.0,53.2 L977.0,53.4 L976.5,52.5 L980.0,51.3 L980.0,53.2 Z M3.6,53.1 L0.0,53.2 L0.0,51.3 L0.3,51.2 L2.7,51.2 L6.6,52.0 L6.4,52.4 L3.6,53.1 Z M243.5,57.0 L243.5,59.8 L247.1,57.6 L250.4,59.4 L249.6,61.5 L252.2,63.3 L255.1,61.3 L257.0,58.9 L257.2,55.9 L261.1,56.1 L265.1,56.5 L268.7,57.9 L268.9,59.3 L266.9,60.7 L268.8,62.2 L268.4,63.6 L263.1,65.5 L259.3,66.0 L256.5,65.1 L255.7,66.5 L253.1,68.9 L252.3,70.1 L249.1,71.9 L245.2,72.1 L243.1,73.3 L242.9,75.1 L239.7,75.5 L236.4,77.7 L233.5,80.8 L232.4,83.0 L232.2,86.3 L236.2,86.7 L237.5,89.3 L238.7,91.4 L242.6,90.9 L247.6,92.1 L250.3,93.1 L252.3,94.4 L255.7,95.2 L258.6,96.4 L263.1,96.5 L266.0,96.8 L265.6,99.2 L266.4,102.0 L268.4,105.1 L272.5,107.8 L274.6,106.9 L276.0,104.0 L274.6,99.6 L272.7,98.1 L277.0,96.8 L280.1,94.9 L281.6,93.0 L281.4,91.1 L279.6,88.7 L276.3,86.7 L279.5,83.7 L278.3,81.2 L277.4,76.9 L279.3,76.2 L283.9,77.0 L286.7,77.3 L289.0,76.5 L291.5,77.5 L294.9,79.1 L295.7,80.2 L300.6,80.4 L300.5,82.7 L301.4,86.2 L303.9,86.7 L305.8,88.3 L309.8,86.8 L312.4,83.7 L314.2,82.4 L316.3,84.9 L319.9,88.4 L322.9,91.8 L321.8,93.5 L325.4,95.1 L327.8,96.7 L332.2,97.4 L333.9,98.3 L335.0,100.6 L337.1,101.0 L338.2,102.0 L338.4,105.1 L336.4,106.2 L334.5,107.2 L330.0,108.2 L326.6,110.4 L322.0,110.9 L316.2,110.3 L312.1,110.3 L309.2,110.5 L307.0,112.5 L303.5,113.7 L299.6,117.4 L296.4,119.9 L298.7,119.5 L303.1,115.8 L308.8,113.5 L312.9,113.2 L315.3,114.6 L312.7,116.5 L313.6,119.5 L314.5,121.6 L318.0,122.9 L322.5,122.5 L325.3,119.4 L325.4,121.4 L327.2,122.4 L323.8,124.3 L317.8,125.9 L315.1,127.0 L312.1,129.0 L310.0,128.8 L309.9,126.5 L314.6,124.2 L310.3,124.3 L307.2,124.6 L307.7,125.5 L304.8,126.9 L302.0,127.8 L299.1,128.7 L297.6,130.5 L297.2,130.9 L297.2,132.4 L298.1,133.9 L299.2,133.9 L298.9,132.9 L299.8,133.5 L299.5,134.3 L297.7,134.8 L296.4,134.7 L294.4,135.2 L293.2,135.4 L291.6,135.5 L289.3,136.3 L293.3,135.8 L294.1,136.3 L290.3,137.1 L288.6,137.1 L288.7,136.8 L287.9,137.6 L288.7,137.7 L288.1,139.7 L286.1,141.8 L285.9,141.1 L285.3,141.0 L284.4,140.3 L285.0,141.8 L285.6,142.3 L285.7,143.3 L284.8,144.4 L283.3,146.6 L283.0,146.5 L283.9,144.6 L282.5,143.6 L282.2,141.2 L281.6,142.5 L282.2,144.2 L280.5,143.8 L282.3,144.7 L282.4,147.3 L283.2,147.5 L283.5,148.5 L283.9,151.2 L282.1,153.3 L279.3,154.1 L277.5,155.8 L276.2,155.9 L274.8,157.0 L274.4,157.9 L271.4,159.7 L269.9,161.0 L268.6,162.7 L268.2,164.6 L268.6,166.6 L269.6,168.9 L270.8,170.9 L270.8,172.1 L272.1,175.3 L272.0,177.2 L271.9,178.3 L271.2,180.0 L270.4,180.3 L269.0,180.0 L268.6,178.8 L267.6,178.1 L266.1,175.7 L264.9,173.6 L264.4,172.5 L265.0,170.7 L264.2,169.2 L262.1,166.8 L261.1,166.4 L258.3,167.7 L257.8,167.5 L256.5,166.2 L254.8,165.6 L251.7,165.9 L249.3,165.6 L247.2,165.8 L246.1,166.2 L246.6,167.0 L246.6,168.1 L247.1,168.6 L246.6,169.0 L245.6,168.6 L244.6,169.1 L242.6,169.0 L240.6,167.6 L238.2,167.9 L236.2,167.3 L234.5,167.5 L232.2,168.1 L229.8,170.2 L227.0,171.4 L225.6,172.7 L224.9,173.9 L224.9,175.9 L225.0,177.2 L225.6,178.1 L225.6,178.1 L225.6,178.2 L224.5,180.6 L224.0,182.6 L223.8,186.3 L223.6,187.7 L224.0,189.2 L224.9,190.5 L225.4,192.7 L227.2,194.7 L227.9,196.3 L228.9,197.7 L231.8,198.4 L233.0,199.6 L235.3,198.8 L237.4,198.5 L239.5,198.0 L241.2,197.6 L242.9,196.4 L243.5,194.8 L243.8,192.5 L244.2,191.7 L246.1,190.9 L249.0,190.3 L251.4,190.4 L253.0,190.2 L253.7,190.7 L253.6,192.1 L252.1,193.7 L251.5,195.4 L252.0,195.9 L251.6,197.1 L250.9,199.3 L250.2,198.6 L249.6,198.6 L249.6,199.0 L250.2,199.0 L250.1,199.8 L249.7,201.0 L249.9,201.4 L249.6,202.4 L249.8,202.7 L249.5,204.1 L248.9,204.8 L248.5,204.9 L247.9,205.9 L248.8,206.4 L249.0,206.0 L249.8,206.3 L250.1,206.4 L250.7,205.9 L251.5,205.9 L251.7,206.1 L252.2,206.0 L253.4,206.2 L254.7,206.2 L255.6,205.9 L255.9,205.5 L256.8,205.7 L257.4,205.9 L258.1,205.8 L258.7,205.6 L259.9,206.0 L260.3,206.0 L261.2,206.5 L261.9,207.2 L262.9,207.6 L263.7,208.3 L263.4,208.6 L263.3,209.2 L263.6,210.2 L262.9,211.2 L262.6,212.3 L262.6,213.5 L262.7,214.3 L262.8,215.5 L262.4,215.8 L262.1,217.0 L262.3,217.7 L261.7,218.4 L261.9,219.2 L262.3,219.6 L263.0,221.1 L264.0,222.2 L265.3,223.4 L266.3,224.4 L266.2,225.0 L267.3,225.1 L267.6,224.9 L268.3,225.6 L269.6,225.4 L270.8,224.7 L272.5,224.1 L273.4,223.3 L274.9,223.5 L274.8,223.7 L276.3,223.8 L277.5,224.3 L278.4,225.1 L279.4,225.9 L280.8,226.0 L282.9,224.1 L284.0,223.8 L284.0,222.8 L284.5,220.5 L286.1,219.2 L287.8,219.2 L288.0,218.6 L290.1,218.8 L292.3,217.4 L293.4,216.8 L294.7,215.5 L295.6,215.6 L296.3,216.4 L295.8,217.3 L295.7,217.9 L294.1,218.3 L295.0,219.5 L295.0,221.0 L293.8,222.6 L294.8,224.8 L296.0,224.6 L296.6,222.6 L295.8,221.6 L295.6,219.5 L299.0,218.4 L298.6,217.1 L299.6,216.2 L300.6,218.2 L302.5,218.2 L304.3,219.8 L304.4,220.7 L306.8,220.7 L309.7,220.4 L311.3,221.7 L313.4,222.0 L314.9,221.1 L314.9,220.4 L318.3,220.3 L321.5,220.2 L319.2,221.1 L320.2,222.4 L322.3,222.6 L324.4,223.9 L324.8,226.2 L326.3,226.1 L327.3,226.8 L329.1,227.8 L330.8,229.6 L330.9,231.0 L331.9,231.1 L333.4,232.4 L334.4,233.4 L337.7,234.0 L338.0,233.5 L340.2,233.3 L343.1,234.0 L344.0,234.3 L346.0,235.0 L348.9,237.3 L349.4,238.5 L350.3,238.3 L351.0,239.9 L352.5,244.7 L354.0,245.2 L354.0,247.1 L352.0,249.4 L352.8,250.2 L357.6,250.7 L357.7,253.4 L359.8,251.6 L363.2,252.6 L367.8,254.3 L369.1,255.9 L368.6,257.5 L371.8,256.6 L377.1,258.1 L381.2,258.0 L385.2,260.3 L388.7,263.4 L390.8,264.2 L393.1,264.3 L394.1,265.2 L395.0,268.7 L395.5,270.4 L394.4,275.0 L393.0,276.8 L389.2,280.7 L387.4,283.8 L385.4,286.2 L384.7,286.3 L384.0,288.3 L384.2,293.5 L383.4,297.8 L383.1,299.6 L382.2,300.7 L381.8,304.4 L379.0,308.1 L378.5,310.9 L376.3,312.1 L375.7,313.8 L372.7,313.8 L368.5,314.9 L366.5,316.1 L363.5,316.9 L360.3,319.1 L358.0,321.9 L357.6,324.0 L358.0,325.5 L357.5,328.3 L356.9,329.7 L355.0,331.2 L352.0,336.1 L349.6,338.3 L347.7,339.6 L346.5,342.2 L344.7,343.8 L343.5,345.5 L340.5,347.1 L338.4,346.5 L337.0,346.8 L334.5,345.6 L332.6,345.7 L330.9,344.2 L330.8,345.6 L334.2,348.0 L333.8,349.9 L335.5,351.1 L335.4,352.5 L332.8,356.1 L328.8,357.6 L323.3,358.1 L320.3,357.9 L320.9,359.5 L320.3,361.6 L320.8,363.0 L319.2,364.0 L316.4,364.4 L313.8,363.3 L312.7,364.1 L313.1,366.8 L315.0,367.7 L316.4,366.8 L317.3,368.2 L314.7,369.1 L312.6,370.8 L312.2,373.6 L311.5,375.1 L308.9,375.1 L306.8,376.5 L306.0,378.6 L308.7,380.6 L311.3,381.2 L310.4,383.7 L307.2,385.3 L305.4,388.5 L302.9,389.6 L301.8,390.9 L302.7,393.8 L304.5,395.4 L303.3,395.3 L300.9,395.3 L299.6,395.9 L297.1,396.9 L296.7,399.5 L295.6,399.6 L292.5,398.7 L289.4,396.8 L286.0,395.2 L285.1,393.4 L285.9,391.8 L284.5,389.9 L284.2,385.2 L285.3,382.5 L288.2,380.4 L284.1,379.6 L286.7,377.1 L287.6,372.5 L290.6,373.5 L292.0,367.7 L290.2,367.0 L289.4,370.5 L287.7,370.1 L288.5,366.1 L289.4,361.0 L290.7,359.1 L289.9,356.3 L289.7,353.2 L290.8,353.1 L292.5,348.6 L294.4,344.2 L295.5,340.1 L294.9,335.9 L295.7,333.6 L295.4,330.2 L297.0,326.8 L297.5,321.4 L298.3,315.6 L299.2,309.4 L299.0,304.9 L298.4,301.0 L295.7,299.4 L295.5,298.2 L290.1,295.4 L285.2,292.4 L283.1,290.7 L282.0,288.4 L282.4,287.6 L280.1,284.0 L277.4,278.8 L274.8,273.3 L273.7,272.0 L272.9,270.0 L270.8,268.2 L268.8,267.0 L269.7,265.8 L268.4,263.2 L269.2,261.2 L271.4,259.5 L272.8,257.4 L272.3,256.2 L271.2,257.5 L269.6,256.2 L270.1,255.5 L269.7,252.9 L270.6,252.5 L271.1,250.8 L272.2,249.0 L272.0,247.9 L273.5,247.3 L275.3,246.2 L275.0,245.3 L276.0,245.1 L275.9,243.7 L276.5,242.7 L277.9,242.5 L279.0,240.8 L280.0,239.3 L279.0,238.6 L279.6,237.0 L278.9,234.5 L279.5,233.8 L279.1,231.4 L278.0,229.9 L277.1,229.1 L276.5,227.6 L277.2,226.9 L276.5,226.7 L276.0,225.8 L274.6,225.0 L273.4,225.2 L272.9,226.2 L271.8,226.9 L271.2,226.9 L270.9,227.5 L272.2,229.0 L271.5,229.4 L271.1,229.8 L269.8,229.9 L269.3,228.3 L269.0,228.8 L268.1,228.6 L267.5,227.5 L266.4,227.3 L265.7,227.0 L264.5,227.0 L264.5,227.6 L264.1,227.2 L262.7,226.5 L262.1,226.0 L262.4,225.5 L262.3,224.9 L261.6,224.2 L260.5,223.6 L259.6,223.3 L259.4,222.5 L258.7,222.0 L258.9,222.8 L258.3,223.5 L257.7,222.7 L256.8,222.4 L256.4,221.8 L256.5,221.0 L256.8,220.1 L256.0,219.7 L256.7,219.2 L255.7,218.3 L254.5,217.2 L253.9,216.3 L252.7,215.4 L251.3,214.1 L251.6,213.7 L252.1,214.1 L252.3,213.9 L251.8,213.1 L251.0,212.8 L250.7,213.5 L249.1,213.4 L248.1,213.2 L247.0,212.6 L245.5,212.4 L244.7,211.8 L243.3,211.4 L241.6,211.3 L240.4,210.8 L238.9,209.6 L235.9,206.6 L234.5,205.7 L232.2,205.0 L230.7,205.2 L228.5,206.2 L227.1,206.5 L225.2,205.8 L223.2,205.3 L220.6,204.0 L218.6,203.6 L215.5,202.3 L213.2,201.0 L212.6,200.2 L211.0,200.1 L208.2,199.2 L207.1,197.9 L204.2,196.3 L202.8,194.6 L202.2,193.2 L203.1,193.0 L202.8,192.2 L203.4,191.5 L203.4,190.5 L202.5,189.2 L202.3,188.1 L201.4,186.7 L199.0,184.0 L196.2,181.8 L194.9,180.1 L192.6,178.9 L192.1,178.3 L192.5,176.5 L191.1,175.9 L189.5,174.5 L188.8,172.6 L187.3,172.4 L185.8,170.9 L184.5,169.6 L184.4,168.7 L182.9,166.6 L181.9,164.5 L182.0,163.4 L180.0,162.3 L179.1,162.4 L177.6,161.7 L177.1,162.8 L177.6,164.1 L177.8,166.2 L178.8,167.4 L180.8,169.3 L181.2,169.9 L181.6,170.1 L182.0,171.1 L182.5,171.0 L183.0,172.8 L183.9,173.5 L184.4,174.5 L186.2,175.9 L187.1,178.5 L187.9,179.7 L188.6,181.0 L188.8,182.5 L190.1,182.6 L191.2,183.9 L192.2,185.1 L192.1,185.6 L191.0,186.6 L190.5,186.6 L189.8,184.9 L188.0,183.3 L186.0,182.0 L184.6,181.3 L184.7,179.2 L184.3,177.7 L183.0,176.9 L181.1,175.6 L180.8,176.0 L180.1,175.3 L178.4,174.6 L176.8,173.0 L177.0,172.8 L178.1,172.9 L179.1,171.9 L179.2,170.6 L177.1,168.7 L175.5,167.9 L174.5,166.2 L173.5,164.3 L172.3,162.1 L171.2,159.6 L170.7,158.2 L168.9,156.6 L167.7,156.3 L167.4,155.5 L165.8,155.3 L164.9,154.6 L162.3,154.3 L161.6,153.9 L161.3,152.3 L158.7,149.6 L156.4,145.7 L156.5,145.0 L155.3,144.1 L153.2,141.8 L152.8,139.5 L151.4,138.0 L152.0,135.7 L151.9,133.3 L151.0,131.2 L152.1,128.6 L152.7,123.5 L152.2,119.8 L151.4,117.4 L150.6,116.2 L150.9,115.6 L154.8,116.6 L156.3,119.2 L157.0,118.4 L156.5,116.2 L155.6,113.9 L155.2,113.9 L150.0,111.2 L148.0,110.0 L143.1,108.8 L141.6,106.3 L142.0,104.6 L138.5,103.5 L138.0,101.2 L134.7,99.2 L134.7,97.8 L133.2,96.7 L130.8,95.8 L130.0,93.4 L126.5,91.2 L125.0,88.5 L122.4,88.4 L118.1,88.3 L114.9,87.5 L109.2,84.6 L106.6,84.1 L101.9,83.1 L98.1,83.3 L92.8,82.1 L89.5,80.9 L86.5,81.5 L87.1,83.4 L85.6,83.6 L82.4,84.2 L80.0,85.1 L77.0,85.7 L76.6,84.0 L77.8,81.3 L80.7,80.5 L80.0,79.8 L76.5,81.3 L74.6,83.2 L70.7,85.1 L72.7,86.5 L70.1,88.5 L67.2,89.6 L64.5,90.5 L63.8,91.7 L59.6,93.2 L58.7,94.5 L55.5,95.6 L53.7,95.4 L51.1,96.2 L48.4,97.2 L46.1,98.1 L41.4,98.9 L41.0,98.4 L44.0,97.1 L46.6,96.3 L49.5,94.7 L52.9,94.4 L54.3,93.3 L58.0,91.6 L58.6,91.1 L60.6,90.1 L61.1,88.0 L62.5,86.3 L59.4,87.2 L58.5,86.7 L57.0,87.7 L55.2,86.3 L54.5,87.3 L53.5,85.9 L50.8,87.0 L49.1,87.0 L48.9,85.4 L49.3,84.4 L47.6,83.4 L44.1,83.9 L41.8,82.6 L39.9,81.9 L39.9,80.4 L37.8,79.2 L38.8,77.6 L41.1,76.0 L42.0,74.6 L44.2,74.4 L46.1,74.8 L48.3,73.5 L50.3,73.7 L52.3,72.9 L51.8,71.6 L50.3,71.1 L52.3,70.0 L50.7,70.1 L47.8,70.7 L46.9,71.3 L44.8,70.7 L40.9,71.0 L37.0,70.3 L35.8,69.2 L32.4,67.6 L36.2,66.4 L42.3,65.1 L44.5,65.1 L44.1,66.5 L49.9,66.3 L47.7,64.6 L44.3,63.6 L42.4,62.2 L39.8,61.0 L36.0,60.1 L37.6,58.7 L42.4,58.6 L45.8,57.3 L46.5,55.9 L49.2,54.6 L51.9,54.3 L57.1,53.1 L59.6,53.3 L63.8,51.8 L67.9,52.4 L69.8,53.6 L71.0,53.1 L75.7,53.2 L75.5,53.9 L79.7,54.4 L82.4,54.1 L88.2,55.0 L93.4,55.2 L95.5,55.6 L99.1,55.1 L103.2,56.0 L106.2,56.4 L111.3,57.0 L115.6,58.4 L118.4,58.6 L120.8,57.5 L124.1,56.6 L128.1,56.9 L132.2,55.7 L136.7,55.0 L138.5,56.2 L140.6,55.5 L141.2,54.2 L143.1,54.5 L147.7,57.0 L151.3,55.1 L151.7,57.2 L155.0,56.8 L156.0,56.0 L159.3,56.1 L163.5,57.3 L169.9,58.3 L173.6,58.8 L176.3,58.6 L179.9,60.0 L176.1,61.4 L181.0,62.0 L188.4,61.6 L190.7,61.2 L193.6,62.8 L196.6,61.4 L193.8,60.2 L195.5,59.3 L198.9,59.2 L201.0,58.9 L203.2,59.6 L206.0,61.1 L209.0,60.8 L213.8,62.1 L218.0,61.7 L222.0,61.7 L221.7,60.0 L224.1,59.5 L228.3,60.4 L228.3,63.1 L230.1,60.9 L232.2,60.9 L233.5,58.1 L230.6,56.4 L227.4,55.3 L227.6,52.2 L230.8,50.2 L234.4,50.7 L237.2,51.9 L240.9,55.0 L238.4,56.4 L243.5,57.0 Z M179.2,46.9 L177.9,48.2 L183.9,47.3 L187.7,48.7 L190.8,47.3 L193.3,48.2 L195.5,51.0 L196.9,49.8 L194.9,47.0 L197.3,46.6 L200.0,47.0 L203.1,48.1 L204.8,50.8 L205.6,52.8 L210.2,54.2 L215.1,55.5 L214.8,56.7 L210.3,56.9 L212.1,58.0 L211.2,59.0 L206.2,58.6 L201.6,57.8 L198.4,58.0 L193.3,58.9 L185.2,59.4 L181.5,59.6 L180.1,58.3 L176.3,57.6 L173.9,57.9 L170.6,55.7 L172.4,55.4 L176.6,54.9 L180.4,55.0 L184.0,54.5 L178.7,53.9 L172.9,54.1 L169.0,54.1 L167.6,53.0 L173.9,51.9 L169.7,52.0 L165.0,51.2 L167.2,49.1 L169.1,48.0 L176.4,46.3 L179.2,46.9 Z M205.5,46.1 L203.1,47.9 L198.9,45.9 L199.8,45.6 L203.5,45.4 L205.5,46.1 Z M282.2,46.9 L282.4,47.7 L279.5,47.6 L276.6,47.6 L273.6,47.9 L272.8,47.8 L269.8,46.3 L270.0,45.3 L271.3,45.1 L277.5,45.4 L282.2,46.9 Z M254.4,46.8 L256.5,48.5 L259.0,46.3 L265.9,45.1 L270.6,48.0 L270.2,49.8 L275.6,49.0 L278.1,47.9 L284.2,49.3 L287.9,50.6 L288.3,51.9 L293.3,51.2 L296.2,53.0 L302.7,54.1 L305.1,55.2 L307.7,57.8 L302.7,59.1 L309.1,60.9 L313.4,61.5 L317.3,64.1 L321.6,64.3 L320.8,66.2 L316.0,69.4 L312.7,68.3 L308.4,65.6 L304.8,65.9 L304.5,67.5 L307.4,69.1 L311.1,70.4 L312.2,71.2 L314.0,73.9 L313.0,75.9 L309.6,75.2 L302.8,72.9 L306.6,75.3 L309.4,77.0 L309.9,78.0 L302.5,76.9 L296.7,75.2 L293.4,73.9 L294.3,73.1 L290.2,71.7 L286.3,70.3 L286.3,71.1 L278.5,71.6 L276.2,70.6 L277.9,68.6 L283.1,68.5 L288.7,68.2 L287.8,67.2 L288.7,65.8 L292.2,63.1 L291.5,61.9 L290.4,60.9 L286.3,59.6 L280.7,58.6 L282.5,57.9 L279.6,56.2 L277.2,56.0 L275.1,55.1 L273.6,55.9 L268.7,56.3 L258.8,55.6 L253.0,54.8 L248.6,54.4 L246.3,53.4 L249.2,52.2 L245.3,52.2 L244.4,49.3 L246.5,46.9 L249.3,45.7 L256.4,45.0 L254.4,46.8 Z M216.8,44.9 L220.1,45.5 L224.9,45.1 L225.6,45.9 L223.1,47.2 L227.2,48.4 L226.7,50.9 L222.2,52.0 L219.6,51.8 L217.7,50.7 L211.0,48.6 L211.0,47.7 L216.6,48.0 L213.6,46.2 L216.8,44.9 Z M880.9,46.6 L876.8,46.7 L871.2,46.3 L870.7,46.2 L873.3,45.1 L876.7,44.8 L880.6,45.9 L880.9,46.6 Z M236.3,47.9 L233.4,49.9 L230.3,49.8 L228.6,47.4 L228.6,46.0 L230.0,44.8 L232.7,44.1 L238.4,44.2 L243.6,44.8 L239.5,47.3 L236.3,47.9 Z M162.1,51.7 L154.9,53.1 L153.5,51.8 L147.2,50.4 L148.1,49.5 L150.2,47.2 L152.6,45.3 L149.9,43.6 L159.1,43.2 L163.0,43.8 L170.0,43.9 L172.6,44.7 L175.6,45.9 L172.1,46.6 L165.5,48.6 L162.1,50.5 L162.1,51.7 Z M900.3,41.4 L897.2,42.5 L892.8,42.3 L887.8,41.2 L888.4,40.3 L893.5,40.7 L900.3,41.4 Z M235.2,41.7 L233.7,42.8 L229.7,42.6 L226.4,41.9 L227.9,40.6 L231.8,39.9 L234.2,40.8 L235.2,41.7 Z M885.0,40.1 L882.8,42.2 L872.8,42.1 L868.3,42.7 L862.9,40.9 L864.3,39.0 L867.9,38.5 L875.1,38.6 L885.0,40.1 Z M221.9,36.9 L223.9,38.2 L224.0,39.6 L222.8,41.7 L218.3,42.0 L215.4,41.5 L215.4,39.9 L211.0,40.1 L210.8,38.0 L213.7,38.0 L217.8,37.1 L221.7,37.3 L221.9,36.9 Z M195.4,38.3 L196.5,39.3 L198.9,38.9 L201.8,39.0 L202.2,40.3 L200.6,41.7 L191.4,42.1 L184.5,43.3 L180.4,43.3 L180.0,42.4 L185.7,41.2 L173.4,41.5 L169.6,41.0 L173.3,38.3 L175.8,37.6 L183.5,38.5 L188.3,40.1 L193.1,40.4 L189.2,37.7 L191.7,36.7 L194.5,37.0 L195.4,38.3 Z M646.6,53.6 L645.0,53.8 L636.1,53.4 L635.4,52.2 L630.5,51.5 L630.1,50.0 L632.9,49.4 L632.8,47.8 L638.2,45.5 L635.7,45.1 L642.2,42.7 L641.4,41.4 L647.5,40.0 L656.5,38.2 L665.6,37.7 L670.2,36.6 L675.5,36.3 L677.4,37.4 L675.6,38.2 L666.0,39.6 L657.6,40.9 L649.2,43.6 L645.1,46.3 L640.9,49.0 L641.4,51.3 L646.6,53.6 Z M232.2,35.8 L235.3,36.7 L240.6,36.7 L243.0,37.6 L242.4,38.7 L245.5,39.3 L247.2,40.0 L250.9,40.1 L254.9,40.3 L259.2,39.7 L264.7,39.5 L269.2,39.7 L272.1,40.7 L272.7,41.9 L271.0,42.6 L266.9,43.2 L263.4,42.9 L255.6,43.3 L250.0,43.4 L245.6,43.0 L238.4,42.1 L237.5,40.6 L237.1,39.2 L234.4,38.0 L228.8,37.7 L225.6,36.8 L226.6,35.7 L232.2,35.8 Z M173.7,34.3 L173.3,36.5 L171.2,37.4 L168.7,37.6 L163.6,38.7 L159.3,39.2 L155.6,38.6 L155.6,38.6 L160.2,36.5 L165.8,34.7 L169.9,34.7 L173.7,34.3 Z M781.2,36.2 L781.9,37.6 L784.4,36.9 L792.4,36.9 L798.5,38.3 L800.7,39.3 L800.0,40.8 L797.0,41.6 L789.9,43.1 L787.8,43.9 L791.2,44.3 L795.2,45.0 L797.7,44.5 L799.1,46.3 L800.2,45.6 L804.6,45.1 L813.3,45.6 L814.0,46.9 L825.4,47.3 L825.5,45.2 L831.3,45.7 L835.7,45.7 L840.1,47.1 L841.3,48.9 L839.7,50.1 L843.1,52.2 L847.4,53.4 L850.0,50.5 L854.4,51.7 L859.0,51.0 L864.3,51.8 L866.3,51.0 L870.8,51.4 L868.8,48.8 L872.4,47.6 L897.0,49.4 L899.3,51.1 L906.4,53.2 L917.4,52.7 L922.8,53.1 L925.1,54.3 L924.8,56.3 L928.1,57.1 L931.8,56.5 L936.6,56.5 L941.7,57.0 L946.9,56.7 L951.6,59.2 L955.0,58.3 L952.8,56.5 L954.0,55.3 L962.7,56.1 L968.4,55.9 L976.2,57.2 L980.0,58.4 L980.0,69.5 L980.0,69.5 L976.5,70.7 L973.0,70.5 L975.4,72.0 L977.0,74.3 L978.3,75.0 L978.6,76.2 L977.9,76.9 L972.8,76.3 L965.2,78.4 L962.8,78.7 L958.6,80.7 L954.7,82.4 L953.7,83.7 L949.8,81.7 L942.7,83.9 L941.5,82.9 L938.8,84.1 L935.2,83.7 L934.3,85.5 L931.0,88.2 L931.1,89.3 L934.2,90.0 L933.9,94.0 L931.4,94.1 L930.2,96.4 L931.3,97.6 L926.6,99.0 L925.6,102.2 L921.6,102.9 L920.7,105.7 L916.8,108.3 L915.8,106.4 L914.6,102.3 L913.1,96.2 L914.4,92.3 L916.7,90.7 L916.9,89.4 L921.1,88.7 L926.0,85.2 L930.7,82.4 L935.5,80.2 L937.7,76.2 L934.4,76.5 L932.8,78.8 L925.9,81.8 L923.7,78.4 L916.6,79.3 L909.8,84.0 L912.1,85.7 L906.0,86.4 L901.8,86.7 L902.0,84.7 L897.7,84.3 L894.4,85.7 L886.0,85.2 L877.1,86.0 L868.3,91.4 L857.8,98.0 L862.1,98.3 L863.5,100.1 L866.1,100.7 L867.9,99.3 L870.8,99.5 L874.8,102.5 L874.9,104.9 L872.7,107.7 L872.5,111.0 L871.3,115.4 L867.2,119.4 L866.3,121.4 L862.6,124.6 L858.9,127.8 L857.1,129.4 L853.5,131.1 L851.8,131.1 L850.1,129.8 L846.4,131.8 L846.0,132.7 L845.0,132.6 L843.8,133.5 L843.0,134.4 L843.1,136.4 L841.7,137.1 L841.2,137.5 L840.2,138.4 L838.4,138.8 L837.2,139.6 L837.1,140.8 L836.8,141.1 L837.9,141.5 L839.4,142.7 L841.7,146.0 L842.4,147.8 L842.4,151.0 L841.4,152.5 L839.0,153.1 L836.8,154.2 L834.3,154.5 L834.0,153.0 L834.5,150.9 L833.3,148.0 L835.3,147.5 L833.5,145.1 L832.2,144.6 L831.8,145.1 L831.0,145.4 L830.9,144.8 L830.2,144.6 L829.5,144.1 L830.2,142.9 L830.9,142.6 L830.6,142.1 L831.3,140.6 L831.2,140.1 L829.6,139.8 L828.3,139.1 L824.5,139.9 L822.5,141.2 L819.5,142.0 L821.0,140.7 L820.4,139.6 L822.6,137.7 L821.1,136.3 L818.8,137.2 L815.7,139.2 L814.0,141.0 L811.3,141.1 L810.0,142.4 L811.4,144.3 L813.6,144.7 L813.7,146.0 L815.9,146.8 L818.9,144.8 L821.3,145.9 L823.1,146.0 L823.5,147.4 L819.7,148.2 L818.4,149.7 L815.8,151.1 L814.4,153.0 L817.3,154.6 L818.4,157.3 L820.0,159.8 L821.9,162.0 L821.8,164.0 L820.1,164.8 L820.8,166.3 L822.4,167.1 L821.9,169.4 L821.3,171.6 L819.7,171.8 L817.7,174.9 L815.5,178.5 L813.0,181.8 L809.3,184.4 L805.5,186.7 L802.4,187.0 L800.7,188.3 L799.8,187.4 L798.3,188.7 L794.5,190.1 L791.6,190.6 L790.7,193.5 L789.1,193.7 L788.4,191.6 L789.1,190.6 L785.4,189.7 L784.1,190.1 L780.5,192.5 L778.2,195.1 L777.6,197.1 L779.7,200.0 L782.3,203.6 L784.7,205.3 L786.4,207.6 L787.6,212.7 L787.3,217.6 L785.0,219.4 L781.9,221.2 L779.7,223.5 L776.3,226.1 L775.3,224.3 L776.0,222.4 L774.0,220.9 L771.7,220.5 L770.6,219.0 L769.3,216.1 L766.8,214.9 L764.5,214.9 L764.9,212.7 L762.5,212.8 L762.3,215.8 L760.8,219.9 L759.9,222.3 L760.1,224.3 L761.9,224.4 L763.0,227.0 L763.5,229.4 L765.0,231.0 L766.6,231.3 L768.1,232.7 L768.7,233.0 L770.3,234.7 L771.4,236.5 L771.6,238.4 L771.3,239.6 L771.6,240.6 L771.8,242.2 L772.7,243.0 L773.8,245.5 L773.7,246.4 L771.8,246.6 L769.2,244.5 L766.0,242.3 L765.7,240.9 L764.1,239.1 L763.7,236.8 L762.8,235.2 L763.1,233.2 L762.5,232.0 L761.4,231.0 L760.9,229.6 L759.5,228.0 L758.1,226.7 L757.7,228.3 L757.2,226.8 L757.5,225.1 L758.3,222.4 L758.0,220.3 L758.9,218.2 L757.9,216.6 L758.2,213.5 L757.1,212.1 L756.2,208.8 L755.7,205.3 L754.5,203.0 L752.7,204.4 L749.6,206.3 L748.1,206.1 L746.4,205.4 L747.3,202.0 L746.8,199.4 L744.6,196.2 L745.0,195.2 L743.4,194.8 L741.4,192.6 L740.7,191.1 L740.5,189.7 L740.0,188.4 L738.9,186.8 L736.4,186.7 L736.6,187.8 L735.7,189.3 L734.6,188.8 L734.2,189.3 L733.4,189.0 L732.4,188.7 L732.0,189.7 L730.1,189.7 L726.8,190.3 L726.9,192.4 L725.5,194.0 L721.6,195.9 L718.5,199.2 L716.5,200.9 L713.7,202.7 L713.7,204.0 L712.4,204.7 L709.9,205.7 L708.7,205.8 L707.8,208.0 L708.4,211.6 L708.6,213.9 L707.4,216.5 L707.4,221.2 L706.0,221.4 L704.7,223.5 L705.6,224.4 L703.1,225.2 L702.2,227.1 L701.1,227.9 L698.5,225.3 L697.2,221.4 L696.2,218.6 L695.2,217.3 L693.8,214.6 L693.1,211.1 L692.7,209.4 L690.2,205.6 L689.0,200.2 L688.2,196.6 L688.2,193.3 L687.7,190.7 L683.8,192.3 L681.8,192.0 L678.3,188.6 L679.6,187.6 L678.8,186.5 L675.6,184.2 L673.6,183.5 L672.8,181.5 L670.7,179.4 L665.7,179.9 L661.2,179.9 L657.4,180.3 L652.3,179.5 L649.3,178.9 L646.2,178.5 L645.1,175.1 L643.8,174.6 L641.7,175.1 L638.9,176.4 L635.6,175.5 L632.9,173.4 L630.3,172.6 L628.4,170.0 L626.4,166.3 L625.0,166.7 L623.2,165.8 L622.2,166.9 L620.6,166.7 L621.2,168.0 L620.9,168.6 L621.8,170.7 L622.9,173.1 L624.2,173.7 L624.7,174.7 L626.5,175.9 L626.7,177.0 L626.4,177.9 L626.8,178.9 L627.5,179.6 L627.9,180.6 L628.3,181.2 L628.1,179.2 L628.9,177.8 L629.6,177.5 L630.4,178.3 L630.5,180.0 L629.9,181.6 L630.4,182.7 L630.9,182.5 L631.0,183.3 L633.1,182.8 L635.4,182.9 L637.0,183.0 L638.9,181.1 L640.9,179.3 L642.6,177.6 L643.4,176.7 L643.8,176.9 L643.5,178.1 L643.2,178.6 L643.5,180.8 L644.7,182.7 L646.3,183.7 L648.3,184.0 L649.9,184.5 L651.1,186.1 L651.8,187.1 L652.8,187.4 L652.8,188.0 L651.8,189.7 L651.4,190.5 L650.2,191.3 L649.2,193.3 L648.0,193.1 L647.4,193.8 L647.0,195.2 L647.3,197.0 L647.1,197.4 L645.8,197.4 L644.1,198.4 L643.8,199.8 L643.2,200.3 L641.5,200.3 L640.5,201.0 L640.5,202.1 L639.2,202.9 L637.7,202.7 L635.8,203.6 L634.6,203.7 L632.6,204.5 L632.1,205.7 L632.0,206.7 L629.3,207.8 L625.0,209.1 L622.5,211.1 L621.3,211.3 L620.5,211.1 L618.9,212.2 L617.2,212.8 L614.9,212.9 L614.2,213.1 L613.6,213.8 L612.9,214.0 L612.5,214.7 L611.1,214.7 L610.3,215.0 L608.4,214.9 L607.7,213.3 L607.7,211.8 L607.3,210.9 L606.8,208.9 L606.0,207.7 L606.5,207.6 L606.2,206.3 L606.6,205.8 L606.5,204.6 L606.1,203.4 L605.3,202.6 L605.1,201.5 L603.7,200.5 L602.2,198.1 L601.4,195.9 L599.6,194.0 L598.3,193.5 L596.5,190.9 L596.2,188.9 L596.3,187.3 L594.8,184.2 L593.5,183.1 L592.0,182.5 L591.1,180.9 L591.3,180.3 L590.5,178.9 L589.7,178.3 L588.7,176.2 L587.0,174.0 L585.6,172.0 L584.3,172.1 L584.7,170.5 L584.8,169.6 L585.2,168.5 L585.1,168.1 L584.3,169.2 L583.7,171.3 L583.0,172.7 L582.3,173.2 L581.4,172.3 L580.2,171.1 L578.3,167.1 L578.0,167.3 L579.1,170.3 L580.8,173.1 L582.8,177.4 L583.8,178.9 L584.7,180.5 L587.2,183.5 L586.6,184.0 L586.7,185.8 L589.9,188.3 L590.4,188.9 L591.2,191.6 L590.6,192.1 L591.0,195.0 L592.0,198.3 L593.1,199.0 L594.6,200.0 L596.1,203.2 L596.9,205.8 L598.4,207.1 L602.1,209.7 L603.6,211.3 L605.1,212.9 L605.9,213.9 L607.3,214.7 L607.9,215.6 L607.8,216.7 L606.3,217.4 L607.5,218.2 L608.3,218.7 L608.9,219.8 L610.1,221.0 L611.5,221.0 L614.0,220.3 L617.0,220.0 L619.4,219.1 L620.7,218.9 L621.7,218.4 L623.2,218.3 L624.1,218.2 L625.4,217.8 L626.8,217.6 L628.1,216.6 L629.1,216.6 L629.2,217.4 L628.9,219.0 L629.0,220.4 L628.4,221.4 L627.6,224.4 L626.3,227.6 L624.6,231.1 L622.3,235.2 L620.0,238.3 L616.8,242.1 L614.0,244.3 L610.0,247.1 L607.4,249.2 L604.4,252.6 L603.8,254.0 L603.2,254.7 L601.3,255.8 L600.6,256.9 L599.6,257.1 L599.2,259.1 L598.3,260.2 L597.8,262.1 L596.7,263.0 L595.5,266.4 L595.6,268.0 L597.4,269.0 L597.4,269.7 L596.7,271.4 L596.9,272.2 L596.7,273.6 L597.6,275.3 L598.8,278.1 L599.8,278.7 L600.2,279.9 L600.1,282.7 L600.4,285.1 L600.5,289.4 L601.0,290.8 L600.2,292.8 L599.1,294.7 L597.4,296.4 L594.9,297.5 L591.8,298.9 L588.8,301.8 L587.7,302.3 L585.8,304.3 L584.7,305.0 L584.5,306.9 L585.8,309.0 L586.3,310.7 L586.3,311.5 L586.8,311.4 L586.7,314.1 L586.3,315.4 L586.9,315.9 L586.5,317.0 L585.4,318.0 L583.1,318.9 L579.9,320.4 L578.7,321.5 L578.9,322.6 L579.6,322.8 L579.4,324.3 L578.7,326.3 L578.4,328.6 L577.7,329.9 L575.8,331.3 L575.3,331.7 L574.1,333.1 L573.4,334.5 L571.8,336.5 L568.7,339.4 L566.8,341.0 L564.8,342.3 L561.9,343.4 L560.5,343.5 L560.2,344.3 L558.5,343.9 L557.2,344.4 L554.2,343.9 L552.6,344.2 L551.5,344.1 L548.6,345.2 L546.3,345.6 L544.6,346.7 L543.4,346.7 L542.2,345.7 L541.3,345.7 L540.2,344.4 L540.0,344.8 L539.7,344.1 L539.7,342.4 L538.8,340.6 L539.7,340.1 L539.6,337.9 L537.8,335.3 L536.5,333.0 L536.4,333.0 L534.5,329.4 L532.5,327.3 L531.4,325.3 L530.8,322.5 L530.1,320.5 L529.2,316.3 L529.2,312.9 L528.8,311.4 L527.8,310.3 L526.3,308.0 L524.9,304.6 L524.3,302.9 L522.1,300.2 L521.9,298.1 L521.7,296.3 L522.1,293.9 L523.0,291.3 L523.1,290.1 L524.0,287.6 L524.7,286.5 L526.2,284.7 L527.1,283.4 L527.4,281.4 L527.3,279.8 L526.4,278.8 L525.7,277.1 L525.0,275.5 L525.2,274.9 L526.0,273.8 L525.2,271.1 L524.6,269.2 L523.3,267.5 L523.5,266.9 L523.2,266.1 L522.4,264.0 L520.2,261.1 L517.4,258.2 L515.6,256.0 L514.0,253.1 L514.0,252.2 L514.6,251.3 L515.3,249.3 L515.8,247.2 L515.3,246.8 L516.3,243.7 L516.7,241.5 L515.6,239.6 L514.4,239.2 L513.8,237.9 L513.1,237.5 L513.1,236.7 L510.3,237.7 L509.3,237.6 L508.2,238.2 L506.1,238.2 L504.6,236.4 L503.7,234.4 L501.8,232.6 L499.7,232.6 L497.3,232.6 L495.1,232.9 L492.9,233.5 L488.6,235.2 L487.1,236.1 L484.7,236.9 L482.2,236.1 L481.0,236.2 L479.1,235.6 L477.3,235.6 L474.1,236.1 L472.2,236.9 L469.5,237.9 L469.0,237.9 L468.3,237.9 L465.5,236.6 L463.0,234.5 L460.7,232.9 L458.9,231.2 L458.1,230.9 L456.2,229.8 L454.8,228.3 L454.3,227.3 L453.9,225.3 L452.7,223.6 L451.7,222.5 L451.0,222.2 L450.3,221.6 L450.0,220.4 L449.6,219.8 L448.8,219.3 L447.4,218.2 L446.2,218.0 L445.6,217.2 L445.6,216.8 L444.8,216.2 L444.6,215.6 L444.2,213.5 L444.5,212.2 L443.4,210.1 L442.0,209.1 L443.2,208.6 L444.5,206.6 L445.2,205.2 L444.9,203.7 L445.7,202.3 L446.0,199.7 L445.7,197.0 L445.4,195.6 L445.7,194.2 L445.0,192.9 L443.5,191.7 L443.7,190.5 L443.8,189.2 L444.8,188.4 L445.7,187.0 L445.6,186.1 L446.5,184.1 L448.0,182.3 L448.9,181.9 L449.6,180.3 L449.7,178.8 L450.7,177.1 L452.5,176.1 L454.2,173.2 L455.6,172.1 L458.2,171.8 L460.3,169.9 L461.7,169.2 L464.0,166.9 L463.3,163.4 L464.3,161.0 L464.7,159.5 L466.4,157.7 L469.2,156.4 L471.2,155.2 L473.0,152.4 L473.9,150.7 L475.9,150.7 L477.5,151.9 L480.1,151.7 L482.9,152.3 L484.1,152.3 L486.7,150.8 L489.7,150.3 L491.4,149.2 L494.0,148.3 L498.6,147.8 L503.1,147.6 L504.5,148.0 L507.0,146.9 L510.0,146.9 L511.1,147.5 L512.9,147.4 L515.9,146.2 L517.8,146.6 L517.7,148.0 L520.0,147.0 L520.2,147.5 L518.9,148.9 L518.8,150.1 L519.8,150.8 L519.4,153.2 L517.6,154.6 L518.1,156.2 L519.6,156.2 L520.2,157.5 L521.3,158.0 L524.5,158.9 L525.6,158.7 L527.9,159.1 L531.5,160.4 L532.8,162.8 L535.2,163.4 L539.1,164.5 L542.0,165.9 L543.3,165.2 L544.6,163.9 L544.0,161.8 L544.8,160.4 L546.8,159.1 L548.6,158.8 L552.3,159.3 L553.3,160.6 L554.3,160.6 L555.1,161.1 L557.8,161.4 L558.5,162.3 L562.1,162.3 L564.7,163.0 L567.4,163.8 L568.7,164.2 L570.8,163.4 L571.9,162.6 L574.3,162.3 L576.3,162.7 L577.0,164.1 L577.6,163.2 L579.8,163.8 L581.9,164.0 L583.3,163.3 L584.1,162.4 L583.9,162.2 L584.6,160.9 L585.2,158.8 L585.5,158.1 L585.6,158.1 L586.6,155.8 L587.9,153.9 L588.0,153.8 L587.7,151.6 L588.4,150.5 L587.4,149.2 L588.4,148.2 L586.8,148.4 L584.5,147.8 L582.6,149.4 L578.5,149.7 L576.3,148.2 L573.4,148.1 L572.7,149.3 L570.9,149.6 L568.2,148.1 L565.2,148.2 L563.6,145.4 L561.6,143.9 L563.0,141.7 L561.2,140.4 L564.3,137.7 L568.5,137.6 L569.6,135.5 L574.8,135.9 L578.1,134.1 L581.2,133.3 L585.7,133.2 L590.5,135.2 L594.4,136.3 L597.6,135.8 L599.9,136.1 L603.1,134.6 L603.5,133.4 L602.8,131.5 L601.3,130.5 L599.8,130.2 L598.8,129.3 L595.3,127.0 L592.2,126.0 L589.8,124.3 L591.8,123.9 L594.1,121.6 L592.6,120.5 L596.6,119.3 L596.5,118.7 L594.1,119.2 L591.9,119.4 L590.1,120.3 L587.5,120.4 L585.2,121.5 L585.3,123.2 L586.7,123.9 L589.4,123.7 L588.9,124.7 L585.9,125.2 L582.2,126.8 L580.7,126.2 L581.3,124.9 L578.3,124.1 L578.8,123.6 L581.4,122.6 L580.6,122.0 L576.4,121.3 L576.2,120.3 L573.7,120.6 L572.7,122.1 L570.6,124.2 L570.6,124.9 L569.3,125.5 L568.5,125.2 L567.7,128.6 L566.3,129.7 L565.3,131.7 L566.2,133.3 L566.5,134.4 L568.9,135.3 L568.4,136.0 L565.2,136.1 L564.0,137.0 L561.8,138.5 L560.9,137.2 L560.9,136.6 L559.3,136.5 L557.9,136.3 L554.6,137.0 L556.4,138.5 L555.1,139.0 L553.5,139.0 L552.1,137.6 L551.6,138.2 L552.2,139.8 L553.6,141.1 L552.5,141.7 L554.1,143.0 L555.4,143.8 L555.4,145.4 L552.9,144.7 L553.7,146.1 L552.0,146.4 L553.0,148.8 L551.2,148.9 L549.0,147.7 L548.0,145.4 L547.5,143.6 L546.4,142.3 L545.0,140.7 L544.9,139.9 L544.4,139.7 L544.3,139.1 L542.8,138.2 L542.6,136.9 L542.8,135.0 L543.2,134.1 L542.7,133.7 L542.2,133.5 L541.4,132.6 L540.2,132.0 L537.7,131.0 L536.1,130.0 L533.6,129.1 L531.3,127.1 L531.9,126.9 L530.6,125.7 L530.6,124.8 L528.8,124.4 L528.0,125.5 L527.2,124.6 L527.2,123.7 L527.3,123.6 L527.9,123.4 L525.8,123.0 L523.6,123.9 L523.7,125.3 L523.4,126.1 L524.3,127.5 L526.8,128.9 L528.2,131.2 L531.2,133.5 L533.4,133.4 L534.0,134.1 L533.3,134.6 L535.7,135.6 L537.7,136.5 L540.0,137.9 L540.3,138.4 L539.8,139.4 L538.3,138.1 L535.9,137.7 L534.8,139.5 L536.7,140.5 L536.4,141.9 L535.3,142.1 L533.8,144.5 L532.7,144.7 L532.7,143.8 L533.3,142.4 L533.9,141.8 L532.8,140.2 L532.0,138.8 L530.8,138.4 L530.0,137.2 L528.3,136.7 L527.1,135.6 L525.1,135.4 L523.0,134.2 L520.5,132.3 L518.6,130.7 L517.8,128.0 L516.4,127.7 L514.2,126.8 L512.9,127.1 L511.4,128.4 L510.2,128.6 L507.8,130.2 L502.4,129.4 L498.4,130.3 L498.1,132.0 L498.3,133.6 L495.7,135.5 L492.2,136.1 L492.0,137.0 L490.3,138.5 L489.2,140.8 L490.3,142.4 L488.7,143.6 L488.1,145.4 L486.1,146.0 L484.2,148.1 L480.7,148.2 L478.1,148.1 L476.4,149.1 L475.4,150.1 L474.0,149.9 L473.0,149.0 L472.3,147.4 L469.7,147.0 L468.6,147.7 L467.2,147.3 L465.8,147.6 L466.2,145.4 L465.9,143.7 L464.7,143.4 L464.1,142.4 L464.3,140.6 L465.4,139.6 L465.6,138.4 L466.1,136.8 L466.1,135.6 L465.5,134.6 L465.4,133.7 L465.5,131.7 L464.4,130.5 L468.3,128.5 L471.6,129.0 L475.3,129.0 L478.2,129.4 L480.4,129.3 L484.8,129.4 L486.2,127.7 L486.8,122.2 L483.9,119.3 L481.9,117.9 L477.8,116.8 L477.5,114.8 L481.0,114.2 L485.6,114.9 L484.7,111.7 L487.3,112.9 L493.6,110.8 L494.5,108.5 L496.8,107.9 L499.0,107.4 L500.4,106.6 L502.8,102.5 L506.5,101.4 L508.8,101.4 L509.3,100.9 L511.6,100.7 L512.1,101.3 L514.0,99.9 L513.3,98.9 L513.2,97.3 L512.1,95.8 L512.0,92.9 L512.5,92.2 L513.3,91.4 L515.7,91.2 L516.6,90.4 L518.8,89.6 L518.7,91.1 L517.9,92.0 L518.2,92.7 L519.7,93.2 L519.0,94.2 L518.2,93.9 L516.3,95.9 L517.0,97.3 L517.1,98.3 L519.8,99.0 L519.8,100.0 L522.5,99.5 L524.1,98.7 L527.2,99.8 L528.4,100.7 L530.3,99.9 L534.5,98.6 L538.0,97.6 L540.7,98.1 L540.9,98.8 L543.5,98.8 L544.1,97.6 L547.9,96.7 L547.3,94.4 L547.4,92.3 L548.8,90.5 L551.3,89.6 L553.5,91.6 L555.7,91.6 L556.2,89.5 L556.5,87.8 L555.5,88.2 L553.8,87.2 L553.5,85.6 L557.0,84.8 L560.4,84.4 L563.4,84.9 L566.2,84.8 L569.3,83.3 L566.4,81.9 L561.5,82.2 L556.7,83.2 L552.3,83.8 L550.7,82.2 L548.0,81.3 L548.7,78.6 L547.3,76.1 L548.6,74.5 L551.1,72.7 L557.3,69.7 L559.1,69.1 L558.9,68.0 L555.1,66.6 L550.4,67.4 L547.7,69.4 L548.2,71.1 L543.8,73.3 L538.6,75.7 L536.6,79.6 L538.5,81.6 L541.1,83.1 L538.6,86.2 L535.8,86.9 L534.8,91.6 L533.2,94.2 L529.9,93.9 L528.4,96.1 L525.2,96.2 L524.4,93.6 L522.1,90.4 L520.0,86.5 L518.2,84.8 L512.8,88.0 L509.2,88.7 L505.4,87.3 L504.5,84.3 L503.6,77.9 L506.1,76.1 L513.3,73.7 L518.7,70.9 L523.6,67.0 L530.2,61.6 L534.7,59.5 L542.2,56.1 L548.2,54.8 L552.7,55.0 L556.8,52.7 L561.8,52.8 L566.7,52.3 L575.2,54.3 L571.7,55.0 L574.7,56.8 L577.5,55.8 L581.9,57.5 L589.4,58.2 L599.7,61.3 L601.8,62.6 L602.0,64.5 L598.9,65.9 L594.5,66.7 L582.3,64.6 L580.3,64.9 L584.8,66.9 L585.1,71.1 L588.6,71.9 L590.8,72.6 L591.1,71.3 L589.4,70.1 L591.2,69.0 L597.8,70.8 L600.1,70.1 L598.2,68.1 L604.6,65.3 L607.1,65.5 L609.6,66.5 L611.2,64.6 L609.0,62.9 L610.3,61.2 L608.3,59.5 L615.9,60.4 L617.5,62.0 L614.0,62.3 L614.0,63.9 L616.2,64.8 L620.4,64.2 L621.0,62.4 L626.7,61.1 L636.2,58.7 L638.3,58.9 L635.6,60.6 L639.0,60.8 L640.9,59.9 L646.0,59.8 L650.1,58.7 L653.2,60.3 L656.3,58.5 L653.4,56.9 L654.8,56.0 L662.9,56.8 L666.6,57.7 L676.5,60.9 L678.3,59.4 L675.6,57.9 L675.5,57.3 L672.2,57.1 L673.1,55.8 L671.6,53.6 L671.6,52.7 L676.6,50.2 L678.4,47.7 L680.4,47.1 L687.6,47.8 L688.2,49.4 L685.6,51.6 L687.3,52.5 L688.2,54.5 L687.5,58.3 L690.5,60.0 L689.4,61.8 L684.0,65.8 L687.2,66.2 L688.2,65.2 L691.2,64.5 L692.0,63.1 L694.3,61.8 L692.7,60.2 L694.0,58.4 L691.0,58.1 L690.4,56.6 L692.5,53.8 L689.0,51.5 L693.9,49.7 L693.2,47.7 L694.6,47.6 L696.0,49.2 L695.0,51.8 L697.9,52.4 L696.6,50.3 L701.2,49.3 L706.8,49.1 L711.9,50.7 L709.4,48.4 L709.2,45.4 L713.9,44.9 L720.5,45.0 L726.3,44.6 L724.1,43.2 L727.3,41.3 L730.4,41.3 L735.7,39.9 L742.9,39.5 L743.8,38.8 L751.0,38.5 L753.2,39.1 L759.3,37.6 L764.3,37.7 L765.0,36.5 L767.6,35.3 L774.1,34.2 L778.7,35.1 L775.0,35.8 L781.2,36.2 Z M623.7,135.3 L625.1,137.3 L626.3,137.4 L627.2,138.2 L624.9,138.4 L624.5,140.6 L624.0,141.5 L623.0,142.2 L623.1,143.6 L623.9,145.6 L626.5,146.2 L628.4,147.6 L632.3,148.1 L636.5,147.3 L636.8,146.7 L636.3,144.7 L636.7,141.8 L634.6,140.9 L635.3,139.0 L633.4,138.8 L634.0,136.5 L636.6,137.1 L639.0,136.2 L637.0,134.6 L636.2,133.0 L634.1,133.7 L633.8,135.7 L632.9,133.9 L632.8,133.3 L633.4,132.1 L632.9,131.1 L629.8,130.2 L628.5,127.7 L627.0,127.0 L626.9,126.1 L629.6,126.3 L629.7,124.3 L632.0,123.9 L634.4,124.3 L634.9,121.6 L634.4,119.9 L631.7,120.0 L629.4,119.3 L626.2,120.5 L623.7,121.1 L622.4,122.8 L619.8,123.2 L617.1,126.1 L619.6,128.7 L619.3,130.6 L622.3,133.9 L623.7,135.3 Z M234.5,34.7 L233.3,34.7 L228.2,34.6 L227.5,33.8 L233.0,33.8 L234.9,34.3 L234.5,34.7 Z M190.0,34.2 L185.0,35.0 L180.9,34.1 L183.1,33.2 L187.1,32.9 L191.0,33.3 L190.0,34.2 Z M557.3,33.7 L551.2,34.9 L546.4,34.2 L548.3,33.5 L546.7,32.6 L552.3,32.1 L553.4,33.1 L557.3,33.7 Z M191.5,31.7 L188.2,32.2 L183.6,32.2 L183.7,31.8 L186.5,31.0 L187.9,31.1 L191.5,31.7 Z M229.1,33.2 L225.1,33.7 L222.9,33.1 L221.7,32.1 L221.5,30.9 L225.0,31.0 L226.6,31.2 L229.9,32.2 L229.1,33.2 Z M217.6,32.4 L218.7,33.6 L214.2,33.3 L209.7,32.4 L203.7,32.3 L206.3,31.5 L203.0,30.8 L202.8,29.7 L208.2,30.1 L215.5,31.1 L217.6,32.4 Z M776.0,32.5 L760.7,33.6 L765.7,29.9 L767.9,29.6 L769.9,29.8 L776.8,31.4 L776.0,32.5 Z M539.7,28.6 L548.6,30.7 L541.8,31.8 L540.3,33.8 L537.9,34.3 L536.6,36.6 L533.3,36.7 L527.5,35.1 L529.9,34.1 L525.9,33.3 L520.5,30.9 L518.4,28.7 L525.9,27.7 L527.3,28.7 L531.2,28.7 L532.3,27.7 L536.3,27.6 L539.7,28.6 Z M559.3,26.6 L564.6,27.6 L560.6,29.1 L552.7,29.4 L544.6,29.0 L544.2,28.2 L540.3,28.2 L537.3,26.9 L545.7,26.1 L549.6,26.8 L552.4,26.0 L559.3,26.6 Z M629.2,26.3 L625.5,26.6 L623.1,26.8 L622.7,27.3 L619.5,27.7 L616.6,27.1 L618.1,26.2 L612.1,26.1 L617.4,25.6 L621.5,25.6 L622.1,26.3 L623.7,25.7 L626.2,25.2 L630.3,25.8 L629.2,26.3 Z M762.1,30.9 L756.1,31.2 L748.5,30.4 L744.0,29.4 L741.9,27.4 L738.2,26.8 L745.3,24.9 L751.2,24.3 L756.5,25.7 L762.7,28.4 L762.1,30.9 Z M253.1,28.7 L256.4,29.6 L252.7,30.4 L247.6,32.5 L242.8,32.7 L237.2,32.4 L234.2,31.2 L234.3,30.2 L236.4,29.5 L231.5,29.5 L228.5,28.6 L226.7,27.3 L228.6,26.1 L230.5,25.3 L233.3,25.1 L232.1,24.4 L238.4,24.3 L241.9,25.8 L246.5,26.4 L251.0,26.9 L253.1,28.7 Z M303.5,19.1 L310.8,19.4 L316.6,19.7 L321.6,20.5 L321.5,21.2 L314.9,22.4 L308.3,23.0 L305.8,23.6 L311.7,23.6 L305.3,25.3 L300.9,26.1 L296.2,28.3 L290.6,28.8 L288.9,29.4 L280.6,29.7 L284.4,30.0 L282.5,30.5 L284.8,31.9 L282.2,32.8 L278.0,33.6 L276.7,34.7 L272.9,35.5 L273.3,36.2 L277.9,36.0 L278.0,36.7 L270.7,38.4 L263.6,37.6 L255.6,38.1 L251.5,37.7 L246.4,37.6 L246.0,36.2 L251.1,35.6 L249.7,33.6 L251.4,33.4 L258.7,34.6 L255.0,32.8 L250.5,32.3 L252.8,31.2 L257.6,30.6 L258.4,29.6 L254.5,28.5 L253.4,27.1 L260.8,27.2 L262.9,27.5 L267.2,26.5 L261.1,26.2 L251.5,26.3 L246.7,25.4 L244.5,24.3 L241.3,23.5 L240.7,22.5 L244.7,22.0 L247.9,21.9 L253.2,21.4 L257.2,20.4 L260.6,20.6 L263.6,21.3 L265.6,19.8 L269.2,19.4 L274.1,19.1 L282.4,19.0 L283.9,19.3 L291.7,18.8 L297.6,19.0 L303.5,19.1 Z M416.2,18.0 L433.3,20.2 L428.2,21.3 L417.8,21.4 L403.2,21.7 L404.5,22.2 L414.2,21.9 L422.4,22.8 L427.7,22.0 L429.9,23.0 L426.9,24.6 L433.9,23.5 L447.1,22.5 L455.2,23.0 L456.8,24.2 L445.7,26.2 L444.1,26.8 L435.4,27.3 L441.7,27.4 L438.6,29.4 L436.4,31.2 L436.4,34.3 L439.7,36.2 L435.5,36.3 L431.0,37.1 L436.0,38.6 L436.6,41.0 L433.7,41.2 L437.3,43.6 L431.2,43.8 L434.4,45.0 L433.5,45.9 L429.6,46.4 L425.8,46.4 L429.3,48.3 L429.3,49.5 L423.9,48.3 L422.5,49.1 L426.2,49.8 L429.7,51.5 L430.8,53.7 L425.9,54.2 L423.8,53.2 L420.5,51.6 L421.4,53.5 L418.2,54.9 L425.4,55.0 L429.2,55.2 L421.9,57.6 L414.5,59.8 L406.5,60.8 L403.5,60.8 L400.7,61.8 L396.9,64.8 L391.0,66.7 L389.2,66.8 L385.5,67.5 L381.6,68.2 L379.3,69.9 L379.3,71.8 L377.9,73.7 L373.4,75.9 L374.5,78.1 L373.3,80.3 L371.9,83.1 L368.1,83.2 L364.1,81.0 L358.6,80.9 L356.0,79.4 L354.2,76.7 L349.4,73.3 L348.1,71.4 L347.7,69.0 L343.9,66.4 L344.9,64.3 L343.1,63.4 L345.8,60.1 L349.9,59.1 L350.9,57.9 L351.5,55.8 L348.4,56.7 L346.9,57.1 L344.5,57.5 L341.1,56.6 L341.0,54.8 L342.0,53.3 L344.5,53.2 L350.1,54.0 L345.4,52.2 L343.0,51.3 L340.3,51.6 L338.0,51.0 L341.0,48.4 L339.4,47.3 L337.2,45.4 L334.0,42.5 L330.5,41.4 L330.5,40.2 L323.2,38.6 L317.4,38.4 L310.2,38.5 L303.5,38.7 L300.4,37.8 L295.6,36.1 L302.8,35.2 L308.3,35.1 L296.6,34.3 L290.5,33.2 L290.8,32.1 L301.2,30.8 L311.1,29.5 L312.2,28.4 L304.8,27.5 L307.2,26.3 L316.6,24.4 L320.6,24.1 L319.4,22.9 L325.9,22.1 L334.3,21.7 L342.6,21.7 L345.6,22.5 L352.8,21.0 L359.3,22.0 L363.1,22.3 L368.8,23.2 L362.3,21.7 L362.7,20.5 L371.8,18.8 L381.4,18.9 L384.9,17.9 L394.5,17.7 L416.2,18.0 Z" class="world-land"></path>
</svg>
